<?xml version="1.0" encoding="UTF-8" standalone="no"?>
<!-- Created with Inkscape (http://www.inkscape.org/) -->

<svg
   width="32"
   height="32"
   viewBox="0 0 32 32"
   version="1.1"
   id="svg5"
   sodipodi:docname="ceolica.svg"
   inkscape:version="1.1.1 (3bf5ae0d25, 2021-09-20)"
   xmlns:inkscape="http://www.inkscape.org/namespaces/inkscape"
   xmlns:sodipodi="http://sodipodi.sourceforge.net/DTD/sodipodi-0.dtd"
   xmlns="http://www.w3.org/2000/svg"
   xmlns:svg="http://www.w3.org/2000/svg">
  <sodipodi:namedview
     id="namedview7"
     pagecolor="#ffffff"
     bordercolor="#666666"
     borderopacity="1.0"
     inkscape:pageshadow="2"
     inkscape:pageopacity="0.0"
     inkscape:pagecheckerboard="0"
     inkscape:document-units="px"
     showgrid="false"
     inkscape:zoom="18.398918"
     inkscape:cx="10.435396"
     inkscape:cy="14.049739"
     inkscape:window-width="1920"
     inkscape:window-height="1017"
     inkscape:window-x="-8"
     inkscape:window-y="-8"
     inkscape:window-maximized="1"
     inkscape:current-layer="layer1"
     showguides="true"
     inkscape:guide-bbox="true"
     inkscape:lockguides="false"
     units="px"
     objecttolerance="1"
     guidetolerance="1" />
  <defs
     id="defs2">
    <symbol
       id="e"
       overflow="visible">
      <path
         d="m 28.422,-1.7031 c -1.4688,0.76172 -3,1.3359 -4.5938,1.7188 -1.5859,0.38281 -3.2344,0.57812 -4.9531,0.57812 -5.1562,0 -9.2422,-1.4375 -12.25,-4.3125 -3.0117,-2.875 -4.5156,-6.7812 -4.5156,-11.719 0,-4.9378 1.5039,-8.8438 4.5156,-11.719 3.0078,-2.8828 7.0938,-4.3281 12.25,-4.3281 1.7188,0 3.3672,0.19531 4.9531,0.57812 1.5938,0.38672 3.125,0.96094 4.5938,1.7188 v 6.4062 c -1.4805,-1.0078 -2.9375,-1.75 -4.375,-2.2188 -1.4375,-0.4688 -2.9492,-0.70312 -4.5312,-0.70312 -2.8438,0 -5.0859,0.91406 -6.7188,2.7344 -1.625,1.8242 -2.4375,4.3359 -2.4375,7.5312 0,3.1992 0.8125,5.7109 2.4375,7.5312 1.6328,1.8242 3.875,2.7344 6.7188,2.7344 1.582,0 3.0938,-0.23438 4.5312,-0.70312 1.4375,-0.47656 2.8945,-1.2188 4.375,-2.2188 z"
         id="path169" />
    </symbol>
    <symbol
       id="c"
       overflow="visible">
      <path
         d="m 20.797,-16.875 c -0.64844,-0.3125 -1.293,-0.53516 -1.9375,-0.67188 -0.64844,-0.14453 -1.293,-0.21875 -1.9375,-0.21875 -1.9062,0 -3.375,0.60938 -4.4062,1.8281 -1.0234,1.2188 -1.5312,2.9688 -1.5312,5.25 V 4.7e-4 H 3.5627 v -23.203 h 7.4219 v 3.8125 c 0.94531,-1.5195 2.0352,-2.6289 3.2656,-3.3281 1.2383,-0.69531 2.7227,-1.0469 4.4531,-1.0469 0.25,0 0.51953,0.01172 0.8125,0.03125 0.28906,0.02344 0.71094,0.07031 1.2656,0.14062 z"
         id="path172" />
    </symbol>
    <symbol
       id="a"
       overflow="visible">
      <path
         d="m 26.719,-11.656 v 2.1094 H 9.391 c 0.17578,1.7422 0.80078,3.0469 1.875,3.9219 1.082,0.86719 2.5859,1.2969 4.5156,1.2969 1.5625,0 3.1602,-0.22656 4.7969,-0.6875 1.6328,-0.46875 3.3164,-1.1719 5.0469,-2.1094 v 5.7188 c -1.75,0.65625 -3.5078,1.1523 -5.2656,1.4844 -1.75,0.34375 -3.5078,0.51562 -5.2656,0.51562 -4.1992,0 -7.4609,-1.0625 -9.7812,-3.1875 -2.3242,-2.1328 -3.4844,-5.1289 -3.4844,-8.9844 0,-3.7812 1.1406,-6.7539 3.4219,-8.9219 2.2812,-2.1758 5.4258,-3.2656 9.4375,-3.2656 3.6445,0 6.5625,1.1016 8.75,3.2969 2.1875,2.1992 3.2812,5.1367 3.2812,8.8125 z m -7.625,-2.4688 c 0,-1.4062 -0.41406,-2.5391 -1.2344,-3.4062 -0.8125,-0.86328 -1.8867,-1.2969 -3.2188,-1.2969 -1.4375,0 -2.6055,0.40625 -3.5,1.2188 -0.89844,0.80469 -1.4531,1.9648 -1.6719,3.4844 z"
         id="path175" />
    </symbol>
    <symbol
       id="j"
       overflow="visible">
      <path
         d="m 13.969,-10.438 c -1.5547,0 -2.7188,0.26562 -3.5,0.79688 -0.78125,0.52344 -1.1719,1.293 -1.1719,2.3125 0,0.9375 0.3125,1.6719 0.9375,2.2031 0.63281,0.53125 1.5078,0.79688 2.625,0.79688 1.3945,0 2.5664,-0.5 3.5156,-1.5 0.95703,-1 1.4375,-2.2539 1.4375,-3.7656 v -0.84375 z m 11.328,-2.7969 V -9e-4 h -7.4844 v -3.4375 c -0.99219,1.4062 -2.1094,2.4336 -3.3594,3.0781 -1.2422,0.63281 -2.75,0.95312 -4.5312,0.95312 -2.4062,0 -4.3594,-0.69531 -5.8594,-2.0938 -1.4922,-1.4062 -2.2344,-3.2227 -2.2344,-5.4531 0,-2.7266 0.92969,-4.7266 2.7969,-6 1.875,-1.2695 4.8125,-1.9062 8.8125,-1.9062 h 4.375 v -0.57812 c 0,-1.1641 -0.46484,-2.0195 -1.3906,-2.5625 -0.92969,-0.55078 -2.3711,-0.82812 -4.3281,-0.82812 -1.5859,0 -3.0625,0.16406 -4.4375,0.48438 -1.3672,0.3125 -2.6328,0.78906 -3.7969,1.4219 v -5.6562 c 1.582,-0.38281 3.1758,-0.67578 4.7812,-0.875 1.6016,-0.20703 3.2031,-0.3125 4.7969,-0.3125 4.1875,0 7.207,0.82812 9.0625,2.4844 1.8633,1.6484 2.7969,4.3281 2.7969,8.0469 z"
         id="path178" />
    </symbol>
    <symbol
       id="b"
       overflow="visible">
      <path
         d="m 11.656,-29.781 v 6.5781 h 7.6562 v 5.3125 H 11.656 v 9.8281 c 0,1.0859 0.21094,1.8203 0.64062,2.2031 0.4375,0.375 1.2891,0.5625 2.5625,0.5625 h 3.7969 V 2e-4 h -6.3594 c -2.9297,0 -5,-0.60938 -6.2188,-1.8281 -1.2188,-1.2266 -1.8281,-3.3047 -1.8281,-6.2344 v -9.8281 h -3.6875 v -5.3125 h 3.6875 v -6.5781 z"
         id="path181" />
    </symbol>
    <symbol
       id="i"
       overflow="visible">
      <path
         d="m 19.344,-19.797 v -12.438 h 7.4531 V -0.001 H 19.344 v -3.3594 c -1.0234,1.3672 -2.1484,2.3672 -3.375,3 -1.2305,0.63281 -2.6523,0.95312 -4.2656,0.95312 -2.8555,0 -5.2031,-1.1328 -7.0469,-3.4062 -1.8359,-2.2695 -2.75,-5.1914 -2.75,-8.7656 0,-3.5703 0.91406,-6.4922 2.75,-8.7656 1.8438,-2.2812 4.1914,-3.4219 7.0469,-3.4219 1.6016,0 3.0195,0.32422 4.25,0.96875 1.2383,0.64844 2.3672,1.6484 3.3906,3 z m -4.8906,15.016 c 1.5938,0 2.8047,-0.57812 3.6406,-1.7344 0.83203,-1.1641 1.25,-2.8516 1.25,-5.0625 0,-2.207 -0.41797,-3.8906 -1.25,-5.0469 -0.83594,-1.1641 -2.0469,-1.75 -3.6406,-1.75 -1.5742,0 -2.7773,0.58594 -3.6094,1.75 -0.83594,1.1562 -1.25,2.8398 -1.25,5.0469 0,2.2109 0.41406,3.8984 1.25,5.0625 0.83203,1.1562 2.0352,1.7344 3.6094,1.7344 z"
         id="path184" />
    </symbol>
    <symbol
       id="h"
       overflow="visible">
      <path
         d="m 15.906,-4.7812 c 1.5938,0 2.8047,-0.57812 3.6406,-1.7344 0.83203,-1.1641 1.25,-2.8516 1.25,-5.0625 0,-2.207 -0.41797,-3.8906 -1.25,-5.0469 -0.83594,-1.1641 -2.0469,-1.75 -3.6406,-1.75 -1.5859,0 -2.8047,0.58594 -3.6562,1.75 -0.84375,1.168 -1.2656,2.8516 -1.2656,5.0469 0,2.1992 0.42188,3.8828 1.2656,5.0469 0.85156,1.168 2.0703,1.75 3.6562,1.75 z m -4.9219,-15.016 c 1.0195,-1.3516 2.1484,-2.3516 3.3906,-3 1.2383,-0.64453 2.6641,-0.96875 4.2812,-0.96875 2.8633,0 5.2109,1.1406 7.0469,3.4219 1.832,2.2734 2.75,5.1953 2.75,8.7656 0,3.5742 -0.91797,6.4961 -2.75,8.7656 -1.8359,2.2734 -4.1836,3.4062 -7.0469,3.4062 -1.6172,0 -3.043,-0.32031 -4.2812,-0.95312 -1.2422,-0.64453 -2.3711,-1.6445 -3.3906,-3 v 3.3594 H 3.5622 v -32.234 h 7.4219 z"
         id="path187" />
    </symbol>
    <symbol
       id="g"
       overflow="visible">
      <path
         d="m 0.51562,-23.203 h 7.4219 l 6.2344,15.75 5.2969,-15.75 h 7.4219 l -9.7656,25.406 c -0.98047,2.5703 -2.1211,4.375 -3.4219,5.4062 -1.3047,1.0312 -3.0273,1.5469 -5.1719,1.5469 h -4.2812 v -4.875 h 2.3125 c 1.2578,0 2.1758,-0.19922 2.75,-0.59375 0.57031,-0.39844 1.0156,-1.1172 1.3281,-2.1562 l 0.21875,-0.64062 z"
         id="path190" />
    </symbol>
    <symbol
       id="f"
       overflow="visible">
      <path
         d="m 11.875,-24.891 v 18.859 h 2.8594 c 3.25,0 5.7344,-0.80469 7.4531,-2.4219 1.7266,-1.6133 2.5938,-3.9609 2.5938,-7.0469 0,-3.0625 -0.85938,-5.3906 -2.5781,-6.9844 -1.7109,-1.6016 -4.1992,-2.4062 -7.4688,-2.4062 z m -7.9844,-6.0312 h 8.4062 c 4.6953,0 8.1953,0.33594 10.5,1 2.3008,0.66797 4.2695,1.8047 5.9062,3.4062 1.457,1.3984 2.5352,3.0078 3.2344,4.8281 0.70703,1.8242 1.0625,3.8867 1.0625,6.1875 0,2.3359 -0.35547,4.418 -1.0625,6.25 -0.69922,1.8359 -1.7773,3.4492 -3.2344,4.8438 -1.6562,1.5938 -3.6484,2.7305 -5.9688,3.4062 -2.3125,0.66797 -5.793,1 -10.438,1 H 3.89 Z"
         id="path193" />
    </symbol>
    <symbol
       id="t"
       overflow="visible">
      <path
         d="m 21.688,-22.469 v 5.625 c -1.5859,-0.65625 -3.1172,-1.1484 -4.5938,-1.4844 -1.4805,-0.33203 -2.875,-0.5 -4.1875,-0.5 -1.4062,0 -2.4531,0.17969 -3.1406,0.53125 -0.6875,0.35547 -1.0312,0.89844 -1.0312,1.625 0,0.59375 0.25781,1.0547 0.78125,1.375 0.51953,0.3125 1.4453,0.54297 2.7812,0.6875 l 1.3125,0.1875 c 3.8008,0.49219 6.3516,1.2891 7.6562,2.3906 1.3125,1.1055 1.9688,2.8398 1.9688,5.2031 0,2.4688 -0.91406,4.3242 -2.7344,5.5625 -1.8242,1.2422 -4.543,1.8594 -8.1562,1.8594 -1.5312,0 -3.1172,-0.12109 -4.75,-0.35938 -1.6367,-0.23828 -3.3203,-0.59766 -5.0469,-1.0781 v -5.6406 c 1.4766,0.71875 2.9922,1.2617 4.5469,1.625 1.5508,0.35547 3.1289,0.53125 4.7344,0.53125 1.4453,0 2.5352,-0.19531 3.2656,-0.59375 0.73828,-0.40625 1.1094,-1.0039 1.1094,-1.7969 0,-0.65625 -0.25781,-1.1445 -0.76562,-1.4688 -0.5,-0.32031 -1.5078,-0.57812 -3.0156,-0.76562 l -1.2969,-0.15625 c -3.3047,-0.41406 -5.6172,-1.1797 -6.9375,-2.2969 -1.3242,-1.125 -1.9844,-2.8281 -1.9844,-5.1094 0,-2.457 0.83594,-4.2812 2.5156,-5.4688 1.6875,-1.1875 4.2695,-1.7812 7.75,-1.7812 1.3633,0 2.7969,0.10547 4.2969,0.3125 1.5078,0.21094 3.1484,0.53906 4.9219,0.98438 z"
         id="path196" />
    </symbol>
    <symbol
       id="d"
       overflow="visible">
      <path
         d="m 3.5625,-23.203 h 7.4219 V 0 H 3.5625 Z m 0,-9.0312 h 7.4219 v 6.0469 H 3.5625 Z"
         id="path199" />
    </symbol>
    <symbol
       id="s"
       overflow="visible">
      <path
         d="M 19.344,-3.9375 C 18.3206,-2.582 17.1956,-1.5859 15.969,-0.9531 14.7385,-0.31638 13.3167,2e-5 11.7034,2e-5 c -2.8359,0 -5.1797,-1.1133 -7.0312,-3.3438 -1.8438,-2.2266 -2.7656,-5.0703 -2.7656,-8.5312 0,-3.457 0.92188,-6.2969 2.7656,-8.5156 1.8516,-2.2188 4.1953,-3.3281 7.0312,-3.3281 1.6133,0 3.0352,0.32031 4.2656,0.95312 1.2266,0.63672 2.3516,1.6367 3.375,3 v -3.4375 h 7.4531 v 20.859 c 0,3.7266 -1.1797,6.5781 -3.5312,8.5469 -2.3555,1.9688 -5.7656,2.9531 -10.234,2.9531 -1.4492,0 -2.8516,-0.10938 -4.2031,-0.32812 C 7.4733,8.60907 6.114,8.26923 4.7507,7.81222 v -5.7812 c 1.2891,0.75 2.5547,1.3047 3.7969,1.6719 1.25,0.36328 2.5,0.54688 3.75,0.54688 2.4375,0 4.2188,-0.53125 5.3438,-1.5938 1.1328,-1.0625 1.7031,-2.7266 1.7031,-5 z m -4.8906,-14.438 c -1.5312,0 -2.7266,0.57031 -3.5781,1.7031 -0.85547,1.1367 -1.2812,2.7344 -1.2812,4.7969 0,2.1367 0.41016,3.75 1.2344,4.8438 0.83203,1.0938 2.0391,1.6406 3.625,1.6406 1.5508,0 2.7539,-0.5625 3.6094,-1.6875 0.85156,-1.1328 1.2812,-2.7344 1.2812,-4.7969 0,-2.0625 -0.42969,-3.6602 -1.2812,-4.7969 -0.85547,-1.1328 -2.0586,-1.7031 -3.6094,-1.7031 z"
         id="path202" />
    </symbol>
    <symbol
       id="r"
       overflow="visible">
      <path
         d="M 26.891,-14.125 V 0 h -7.4688 v -10.812 c 0,-2 -0.04687,-3.3789 -0.14062,-4.1406 -0.08594,-0.75781 -0.23438,-1.3203 -0.45312,-1.6875 -0.29297,-0.47656 -0.6875,-0.85156 -1.1875,-1.125 -0.49219,-0.26953 -1.0547,-0.40625 -1.6875,-0.40625 -1.5547,0 -2.7734,0.60156 -3.6562,1.7969 -0.875,1.1992 -1.3125,2.8555 -1.3125,4.9688 v 11.406 h -7.4219 v -23.203 h 7.4219 v 3.4062 c 1.1133,-1.3516 2.2969,-2.3516 3.5469,-3 1.2578,-0.64453 2.6484,-0.96875 4.1719,-0.96875 2.6758,0 4.707,0.82422 6.0938,2.4688 1.3945,1.6484 2.0938,4.0391 2.0938,7.1719 z"
         id="path205" />
    </symbol>
    <symbol
       id="q"
       overflow="visible">
      <path
         d="m 22.312,-22.469 v 6.0469 c -1.0117,-0.69531 -2.0273,-1.207 -3.0469,-1.5312 -1.0117,-0.33203 -2.0625,-0.5 -3.1562,-0.5 -2.0625,0 -3.6719,0.60547 -4.8281,1.8125 -1.1562,1.2109 -1.7344,2.8984 -1.7344,5.0625 0,2.168 0.57812,3.8555 1.7344,5.0625 1.1562,1.2109 2.7656,1.8125 4.8281,1.8125 1.1641,0 2.2695,-0.17188 3.3125,-0.51562 1.0391,-0.34375 2.0039,-0.85156 2.8906,-1.5312 v 6.0625 c -1.168,0.42969 -2.3516,0.74219 -3.5469,0.95312 -1.1875,0.21875 -2.3828,0.32812 -3.5781,0.32812 -4.1875,0 -7.4648,-1.0703 -9.8281,-3.2188 -2.3555,-2.1445 -3.5312,-5.1289 -3.5312,-8.9531 0,-3.8203 1.1758,-6.8047 3.5312,-8.9531 2.3633,-2.1562 5.6406,-3.2344 9.8281,-3.2344 1.207,0 2.3984,0.10938 3.5781,0.32812 1.1875,0.21875 2.3672,0.54297 3.5469,0.96875 z"
         id="path208" />
    </symbol>
    <symbol
       id="p"
       overflow="visible">
      <path
         d="m 3.5625,-32.234 h 7.4219 V 0 H 3.5625 Z"
         id="path211" />
    </symbol>
    <symbol
       id="o"
       overflow="visible">
      <path
         d="m 18.828,-32.234 v 4.875 h -4.0938 c -1.0547,0 -1.7891,0.19531 -2.2031,0.57812 -0.41797,0.375 -0.625,1.0312 -0.625,1.9688 v 1.6094 h 6.3438 v 5.3125 H 11.9061 V 8.2e-4 H 4.4999 v -17.891 H 0.8124 v -5.3125 h 3.6875 v -1.6094 c 0,-2.5312 0.70312,-4.3984 2.1094,-5.6094 1.4062,-1.207 3.5859,-1.8125 6.5469,-1.8125 z"
         id="path214" />
    </symbol>
    <symbol
       id="n"
       overflow="visible">
      <path
         d="M 26.891,-14.125 V 0 h -7.4688 v -10.766 c 0,-2.0312 -0.04687,-3.4258 -0.14062,-4.1875 -0.08594,-0.75781 -0.23438,-1.3203 -0.45312,-1.6875 -0.29297,-0.47656 -0.6875,-0.85156 -1.1875,-1.125 -0.49219,-0.26953 -1.0547,-0.40625 -1.6875,-0.40625 -1.5547,0 -2.7734,0.60156 -3.6562,1.7969 -0.875,1.1992 -1.3125,2.8555 -1.3125,4.9688 v 11.406 h -7.4219 v -32.234 h 7.4219 v 12.438 c 1.1133,-1.3516 2.2969,-2.3516 3.5469,-3 1.2578,-0.64453 2.6484,-0.96875 4.1719,-0.96875 2.6758,0 4.707,0.82422 6.0938,2.4688 1.3945,1.6484 2.0938,4.0391 2.0938,7.1719 z"
         id="path217" />
    </symbol>
    <symbol
       id="m"
       overflow="visible">
      <path
         d="m 3.8906,-30.922 h 8.9062 l 11.25,21.203 v -21.203 h 7.5625 V 0 h -8.9062 l -11.25,-21.219 V 0 H 3.8906 Z"
         id="path220" />
    </symbol>
    <symbol
       id="l"
       overflow="visible">
      <path
         d="m 3.8906,-30.922 h 13.234 c 3.9375,0 6.957,0.875 9.0625,2.625 2.1016,1.7422 3.1562,4.2266 3.1562,7.4531 0,3.25 -1.0547,5.75 -3.1562,7.5 -2.1055,1.7422 -5.125,2.6094 -9.0625,2.6094 h -5.25 V -5e-4 H 3.8902 Z m 7.9844,5.7812 v 8.625 h 4.4062 c 1.5391,0 2.7344,-0.375 3.5781,-1.125 0.8437,-0.75 1.2656,-1.8164 1.2656,-3.2031 0,-1.375 -0.42188,-2.4297 -1.2656,-3.1719 -0.84375,-0.75 -2.0391,-1.125 -3.5781,-1.125 z"
         id="path223" />
    </symbol>
    <symbol
       id="k"
       overflow="visible">
      <path
         d="m 3.5625,-23.203 h 7.4219 v 22.781 c 0,3.1133 -0.75,5.4883 -2.25,7.125 C 7.2422,8.3358 5.0821,9.1561 2.25,9.1561 h -3.6562 v -4.875 h 1.2812 c 1.4062,0 2.3672,-0.32031 2.8906,-0.95312 0.53125,-0.63672 0.79688,-1.8867 0.79688,-3.75 z m 0,-9.0312 h 7.4219 v 6.0469 H 3.5625 Z"
         id="path226" />
    </symbol>
    <symbol
       id="e-3"
       overflow="visible">
      <path
         d="m 28.422,-1.7031 c -1.4688,0.76172 -3,1.3359 -4.5938,1.7188 -1.5859,0.38281 -3.2344,0.57812 -4.9531,0.57812 -5.1562,0 -9.2422,-1.4375 -12.25,-4.3125 -3.0117,-2.875 -4.5156,-6.7812 -4.5156,-11.719 0,-4.9378 1.5039,-8.8438 4.5156,-11.719 3.0078,-2.8828 7.0938,-4.3281 12.25,-4.3281 1.7188,0 3.3672,0.19531 4.9531,0.57812 1.5938,0.38672 3.125,0.96094 4.5938,1.7188 v 6.4062 c -1.4805,-1.0078 -2.9375,-1.75 -4.375,-2.2188 -1.4375,-0.4688 -2.9492,-0.70312 -4.5312,-0.70312 -2.8438,0 -5.0859,0.91406 -6.7188,2.7344 -1.625,1.8242 -2.4375,4.3359 -2.4375,7.5312 0,3.1992 0.8125,5.7109 2.4375,7.5312 1.6328,1.8242 3.875,2.7344 6.7188,2.7344 1.582,0 3.0938,-0.23438 4.5312,-0.70312 1.4375,-0.47656 2.8945,-1.2188 4.375,-2.2188 z"
         id="path169-4" />
    </symbol>
    <symbol
       id="c-8"
       overflow="visible">
      <path
         d="m 20.797,-16.875 c -0.64844,-0.3125 -1.293,-0.53516 -1.9375,-0.67188 -0.64844,-0.14453 -1.293,-0.21875 -1.9375,-0.21875 -1.9062,0 -3.375,0.60938 -4.4062,1.8281 -1.0234,1.2188 -1.5312,2.9688 -1.5312,5.25 V 4.7e-4 H 3.5627 v -23.203 h 7.4219 v 3.8125 c 0.94531,-1.5195 2.0352,-2.6289 3.2656,-3.3281 1.2383,-0.69531 2.7227,-1.0469 4.4531,-1.0469 0.25,0 0.51953,0.01172 0.8125,0.03125 0.28906,0.02344 0.71094,0.07031 1.2656,0.14062 z"
         id="path172-7" />
    </symbol>
    <symbol
       id="a-4"
       overflow="visible">
      <path
         d="m 26.719,-11.656 v 2.1094 H 9.391 c 0.17578,1.7422 0.80078,3.0469 1.875,3.9219 1.082,0.86719 2.5859,1.2969 4.5156,1.2969 1.5625,0 3.1602,-0.22656 4.7969,-0.6875 1.6328,-0.46875 3.3164,-1.1719 5.0469,-2.1094 v 5.7188 c -1.75,0.65625 -3.5078,1.1523 -5.2656,1.4844 -1.75,0.34375 -3.5078,0.51562 -5.2656,0.51562 -4.1992,0 -7.4609,-1.0625 -9.7812,-3.1875 -2.3242,-2.1328 -3.4844,-5.1289 -3.4844,-8.9844 0,-3.7812 1.1406,-6.7539 3.4219,-8.9219 2.2812,-2.1758 5.4258,-3.2656 9.4375,-3.2656 3.6445,0 6.5625,1.1016 8.75,3.2969 2.1875,2.1992 3.2812,5.1367 3.2812,8.8125 z m -7.625,-2.4688 c 0,-1.4062 -0.41406,-2.5391 -1.2344,-3.4062 -0.8125,-0.86328 -1.8867,-1.2969 -3.2188,-1.2969 -1.4375,0 -2.6055,0.40625 -3.5,1.2188 -0.89844,0.80469 -1.4531,1.9648 -1.6719,3.4844 z"
         id="path175-6" />
    </symbol>
    <symbol
       id="j-4"
       overflow="visible">
      <path
         d="m 13.969,-10.438 c -1.5547,0 -2.7188,0.26562 -3.5,0.79688 -0.78125,0.52344 -1.1719,1.293 -1.1719,2.3125 0,0.9375 0.3125,1.6719 0.9375,2.2031 0.63281,0.53125 1.5078,0.79688 2.625,0.79688 1.3945,0 2.5664,-0.5 3.5156,-1.5 0.95703,-1 1.4375,-2.2539 1.4375,-3.7656 v -0.84375 z m 11.328,-2.7969 V -9e-4 h -7.4844 v -3.4375 c -0.99219,1.4062 -2.1094,2.4336 -3.3594,3.0781 -1.2422,0.63281 -2.75,0.95312 -4.5312,0.95312 -2.4062,0 -4.3594,-0.69531 -5.8594,-2.0938 -1.4922,-1.4062 -2.2344,-3.2227 -2.2344,-5.4531 0,-2.7266 0.92969,-4.7266 2.7969,-6 1.875,-1.2695 4.8125,-1.9062 8.8125,-1.9062 h 4.375 v -0.57812 c 0,-1.1641 -0.46484,-2.0195 -1.3906,-2.5625 -0.92969,-0.55078 -2.3711,-0.82812 -4.3281,-0.82812 -1.5859,0 -3.0625,0.16406 -4.4375,0.48438 -1.3672,0.3125 -2.6328,0.78906 -3.7969,1.4219 v -5.6562 c 1.582,-0.38281 3.1758,-0.67578 4.7812,-0.875 1.6016,-0.20703 3.2031,-0.3125 4.7969,-0.3125 4.1875,0 7.207,0.82812 9.0625,2.4844 1.8633,1.6484 2.7969,4.3281 2.7969,8.0469 z"
         id="path178-7" />
    </symbol>
    <symbol
       id="b-0"
       overflow="visible">
      <path
         d="m 11.656,-29.781 v 6.5781 h 7.6562 v 5.3125 H 11.656 v 9.8281 c 0,1.0859 0.21094,1.8203 0.64062,2.2031 0.4375,0.375 1.2891,0.5625 2.5625,0.5625 h 3.7969 V 2e-4 h -6.3594 c -2.9297,0 -5,-0.60938 -6.2188,-1.8281 -1.2188,-1.2266 -1.8281,-3.3047 -1.8281,-6.2344 v -9.8281 h -3.6875 v -5.3125 h 3.6875 v -6.5781 z"
         id="path181-5" />
    </symbol>
    <symbol
       id="i-0"
       overflow="visible">
      <path
         d="m 19.344,-19.797 v -12.438 h 7.4531 V -0.001 H 19.344 v -3.3594 c -1.0234,1.3672 -2.1484,2.3672 -3.375,3 -1.2305,0.63281 -2.6523,0.95312 -4.2656,0.95312 -2.8555,0 -5.2031,-1.1328 -7.0469,-3.4062 -1.8359,-2.2695 -2.75,-5.1914 -2.75,-8.7656 0,-3.5703 0.91406,-6.4922 2.75,-8.7656 1.8438,-2.2812 4.1914,-3.4219 7.0469,-3.4219 1.6016,0 3.0195,0.32422 4.25,0.96875 1.2383,0.64844 2.3672,1.6484 3.3906,3 z m -4.8906,15.016 c 1.5938,0 2.8047,-0.57812 3.6406,-1.7344 0.83203,-1.1641 1.25,-2.8516 1.25,-5.0625 0,-2.207 -0.41797,-3.8906 -1.25,-5.0469 -0.83594,-1.1641 -2.0469,-1.75 -3.6406,-1.75 -1.5742,0 -2.7773,0.58594 -3.6094,1.75 -0.83594,1.1562 -1.25,2.8398 -1.25,5.0469 0,2.2109 0.41406,3.8984 1.25,5.0625 0.83203,1.1562 2.0352,1.7344 3.6094,1.7344 z"
         id="path184-4" />
    </symbol>
    <symbol
       id="h-2"
       overflow="visible">
      <path
         d="m 15.906,-4.7812 c 1.5938,0 2.8047,-0.57812 3.6406,-1.7344 0.83203,-1.1641 1.25,-2.8516 1.25,-5.0625 0,-2.207 -0.41797,-3.8906 -1.25,-5.0469 -0.83594,-1.1641 -2.0469,-1.75 -3.6406,-1.75 -1.5859,0 -2.8047,0.58594 -3.6562,1.75 -0.84375,1.168 -1.2656,2.8516 -1.2656,5.0469 0,2.1992 0.42188,3.8828 1.2656,5.0469 0.85156,1.168 2.0703,1.75 3.6562,1.75 z m -4.9219,-15.016 c 1.0195,-1.3516 2.1484,-2.3516 3.3906,-3 1.2383,-0.64453 2.6641,-0.96875 4.2812,-0.96875 2.8633,0 5.2109,1.1406 7.0469,3.4219 1.832,2.2734 2.75,5.1953 2.75,8.7656 0,3.5742 -0.91797,6.4961 -2.75,8.7656 -1.8359,2.2734 -4.1836,3.4062 -7.0469,3.4062 -1.6172,0 -3.043,-0.32031 -4.2812,-0.95312 -1.2422,-0.64453 -2.3711,-1.6445 -3.3906,-3 v 3.3594 H 3.5622 v -32.234 h 7.4219 z"
         id="path187-4" />
    </symbol>
    <symbol
       id="g-6"
       overflow="visible">
      <path
         d="m 0.51562,-23.203 h 7.4219 l 6.2344,15.75 5.2969,-15.75 h 7.4219 l -9.7656,25.406 c -0.98047,2.5703 -2.1211,4.375 -3.4219,5.4062 -1.3047,1.0312 -3.0273,1.5469 -5.1719,1.5469 h -4.2812 v -4.875 h 2.3125 c 1.2578,0 2.1758,-0.19922 2.75,-0.59375 0.57031,-0.39844 1.0156,-1.1172 1.3281,-2.1562 l 0.21875,-0.64062 z"
         id="path190-2" />
    </symbol>
    <symbol
       id="f-5"
       overflow="visible">
      <path
         d="m 11.875,-24.891 v 18.859 h 2.8594 c 3.25,0 5.7344,-0.80469 7.4531,-2.4219 1.7266,-1.6133 2.5938,-3.9609 2.5938,-7.0469 0,-3.0625 -0.85938,-5.3906 -2.5781,-6.9844 -1.7109,-1.6016 -4.1992,-2.4062 -7.4688,-2.4062 z m -7.9844,-6.0312 h 8.4062 c 4.6953,0 8.1953,0.33594 10.5,1 2.3008,0.66797 4.2695,1.8047 5.9062,3.4062 1.457,1.3984 2.5352,3.0078 3.2344,4.8281 0.70703,1.8242 1.0625,3.8867 1.0625,6.1875 0,2.3359 -0.35547,4.418 -1.0625,6.25 -0.69922,1.8359 -1.7773,3.4492 -3.2344,4.8438 -1.6562,1.5938 -3.6484,2.7305 -5.9688,3.4062 -2.3125,0.66797 -5.793,1 -10.438,1 H 3.89 Z"
         id="path193-5" />
    </symbol>
    <symbol
       id="t-4"
       overflow="visible">
      <path
         d="m 21.688,-22.469 v 5.625 c -1.5859,-0.65625 -3.1172,-1.1484 -4.5938,-1.4844 -1.4805,-0.33203 -2.875,-0.5 -4.1875,-0.5 -1.4062,0 -2.4531,0.17969 -3.1406,0.53125 -0.6875,0.35547 -1.0312,0.89844 -1.0312,1.625 0,0.59375 0.25781,1.0547 0.78125,1.375 0.51953,0.3125 1.4453,0.54297 2.7812,0.6875 l 1.3125,0.1875 c 3.8008,0.49219 6.3516,1.2891 7.6562,2.3906 1.3125,1.1055 1.9688,2.8398 1.9688,5.2031 0,2.4688 -0.91406,4.3242 -2.7344,5.5625 -1.8242,1.2422 -4.543,1.8594 -8.1562,1.8594 -1.5312,0 -3.1172,-0.12109 -4.75,-0.35938 -1.6367,-0.23828 -3.3203,-0.59766 -5.0469,-1.0781 v -5.6406 c 1.4766,0.71875 2.9922,1.2617 4.5469,1.625 1.5508,0.35547 3.1289,0.53125 4.7344,0.53125 1.4453,0 2.5352,-0.19531 3.2656,-0.59375 0.73828,-0.40625 1.1094,-1.0039 1.1094,-1.7969 0,-0.65625 -0.25781,-1.1445 -0.76562,-1.4688 -0.5,-0.32031 -1.5078,-0.57812 -3.0156,-0.76562 l -1.2969,-0.15625 c -3.3047,-0.41406 -5.6172,-1.1797 -6.9375,-2.2969 -1.3242,-1.125 -1.9844,-2.8281 -1.9844,-5.1094 0,-2.457 0.83594,-4.2812 2.5156,-5.4688 1.6875,-1.1875 4.2695,-1.7812 7.75,-1.7812 1.3633,0 2.7969,0.10547 4.2969,0.3125 1.5078,0.21094 3.1484,0.53906 4.9219,0.98438 z"
         id="path196-0" />
    </symbol>
    <symbol
       id="d-8"
       overflow="visible">
      <path
         d="m 3.5625,-23.203 h 7.4219 V 0 H 3.5625 Z m 0,-9.0312 h 7.4219 v 6.0469 H 3.5625 Z"
         id="path199-6" />
    </symbol>
    <symbol
       id="s-8"
       overflow="visible">
      <path
         d="M 19.344,-3.9375 C 18.3206,-2.582 17.1956,-1.5859 15.969,-0.9531 14.7385,-0.31638 13.3167,2e-5 11.7034,2e-5 c -2.8359,0 -5.1797,-1.1133 -7.0312,-3.3438 -1.8438,-2.2266 -2.7656,-5.0703 -2.7656,-8.5312 0,-3.457 0.92188,-6.2969 2.7656,-8.5156 1.8516,-2.2188 4.1953,-3.3281 7.0312,-3.3281 1.6133,0 3.0352,0.32031 4.2656,0.95312 1.2266,0.63672 2.3516,1.6367 3.375,3 v -3.4375 h 7.4531 v 20.859 c 0,3.7266 -1.1797,6.5781 -3.5312,8.5469 -2.3555,1.9688 -5.7656,2.9531 -10.234,2.9531 -1.4492,0 -2.8516,-0.10938 -4.2031,-0.32812 C 7.4733,8.60907 6.114,8.26923 4.7507,7.81222 v -5.7812 c 1.2891,0.75 2.5547,1.3047 3.7969,1.6719 1.25,0.36328 2.5,0.54688 3.75,0.54688 2.4375,0 4.2188,-0.53125 5.3438,-1.5938 1.1328,-1.0625 1.7031,-2.7266 1.7031,-5 z m -4.8906,-14.438 c -1.5312,0 -2.7266,0.57031 -3.5781,1.7031 -0.85547,1.1367 -1.2812,2.7344 -1.2812,4.7969 0,2.1367 0.41016,3.75 1.2344,4.8438 0.83203,1.0938 2.0391,1.6406 3.625,1.6406 1.5508,0 2.7539,-0.5625 3.6094,-1.6875 0.85156,-1.1328 1.2812,-2.7344 1.2812,-4.7969 0,-2.0625 -0.42969,-3.6602 -1.2812,-4.7969 -0.85547,-1.1328 -2.0586,-1.7031 -3.6094,-1.7031 z"
         id="path202-8" />
    </symbol>
    <symbol
       id="r-3"
       overflow="visible">
      <path
         d="M 26.891,-14.125 V 0 h -7.4688 v -10.812 c 0,-2 -0.04687,-3.3789 -0.14062,-4.1406 -0.08594,-0.75781 -0.23438,-1.3203 -0.45312,-1.6875 -0.29297,-0.47656 -0.6875,-0.85156 -1.1875,-1.125 -0.49219,-0.26953 -1.0547,-0.40625 -1.6875,-0.40625 -1.5547,0 -2.7734,0.60156 -3.6562,1.7969 -0.875,1.1992 -1.3125,2.8555 -1.3125,4.9688 v 11.406 h -7.4219 v -23.203 h 7.4219 v 3.4062 c 1.1133,-1.3516 2.2969,-2.3516 3.5469,-3 1.2578,-0.64453 2.6484,-0.96875 4.1719,-0.96875 2.6758,0 4.707,0.82422 6.0938,2.4688 1.3945,1.6484 2.0938,4.0391 2.0938,7.1719 z"
         id="path205-9" />
    </symbol>
    <symbol
       id="q-0"
       overflow="visible">
      <path
         d="m 22.312,-22.469 v 6.0469 c -1.0117,-0.69531 -2.0273,-1.207 -3.0469,-1.5312 -1.0117,-0.33203 -2.0625,-0.5 -3.1562,-0.5 -2.0625,0 -3.6719,0.60547 -4.8281,1.8125 -1.1562,1.2109 -1.7344,2.8984 -1.7344,5.0625 0,2.168 0.57812,3.8555 1.7344,5.0625 1.1562,1.2109 2.7656,1.8125 4.8281,1.8125 1.1641,0 2.2695,-0.17188 3.3125,-0.51562 1.0391,-0.34375 2.0039,-0.85156 2.8906,-1.5312 v 6.0625 c -1.168,0.42969 -2.3516,0.74219 -3.5469,0.95312 -1.1875,0.21875 -2.3828,0.32812 -3.5781,0.32812 -4.1875,0 -7.4648,-1.0703 -9.8281,-3.2188 -2.3555,-2.1445 -3.5312,-5.1289 -3.5312,-8.9531 0,-3.8203 1.1758,-6.8047 3.5312,-8.9531 2.3633,-2.1562 5.6406,-3.2344 9.8281,-3.2344 1.207,0 2.3984,0.10938 3.5781,0.32812 1.1875,0.21875 2.3672,0.54297 3.5469,0.96875 z"
         id="path208-0" />
    </symbol>
    <symbol
       id="p-5"
       overflow="visible">
      <path
         d="m 3.5625,-32.234 h 7.4219 V 0 H 3.5625 Z"
         id="path211-0" />
    </symbol>
    <symbol
       id="o-4"
       overflow="visible">
      <path
         d="m 18.828,-32.234 v 4.875 h -4.0938 c -1.0547,0 -1.7891,0.19531 -2.2031,0.57812 -0.41797,0.375 -0.625,1.0312 -0.625,1.9688 v 1.6094 h 6.3438 v 5.3125 H 11.9061 V 8.2e-4 H 4.4999 v -17.891 H 0.8124 v -5.3125 h 3.6875 v -1.6094 c 0,-2.5312 0.70312,-4.3984 2.1094,-5.6094 1.4062,-1.207 3.5859,-1.8125 6.5469,-1.8125 z"
         id="path214-2" />
    </symbol>
    <symbol
       id="n-2"
       overflow="visible">
      <path
         d="M 26.891,-14.125 V 0 h -7.4688 v -10.766 c 0,-2.0312 -0.04687,-3.4258 -0.14062,-4.1875 -0.08594,-0.75781 -0.23438,-1.3203 -0.45312,-1.6875 -0.29297,-0.47656 -0.6875,-0.85156 -1.1875,-1.125 -0.49219,-0.26953 -1.0547,-0.40625 -1.6875,-0.40625 -1.5547,0 -2.7734,0.60156 -3.6562,1.7969 -0.875,1.1992 -1.3125,2.8555 -1.3125,4.9688 v 11.406 h -7.4219 v -32.234 h 7.4219 v 12.438 c 1.1133,-1.3516 2.2969,-2.3516 3.5469,-3 1.2578,-0.64453 2.6484,-0.96875 4.1719,-0.96875 2.6758,0 4.707,0.82422 6.0938,2.4688 1.3945,1.6484 2.0938,4.0391 2.0938,7.1719 z"
         id="path217-8" />
    </symbol>
    <symbol
       id="m-1"
       overflow="visible">
      <path
         d="m 3.8906,-30.922 h 8.9062 l 11.25,21.203 v -21.203 h 7.5625 V 0 h -8.9062 l -11.25,-21.219 V 0 H 3.8906 Z"
         id="path220-4" />
    </symbol>
    <symbol
       id="l-4"
       overflow="visible">
      <path
         d="m 3.8906,-30.922 h 13.234 c 3.9375,0 6.957,0.875 9.0625,2.625 2.1016,1.7422 3.1562,4.2266 3.1562,7.4531 0,3.25 -1.0547,5.75 -3.1562,7.5 -2.1055,1.7422 -5.125,2.6094 -9.0625,2.6094 h -5.25 V -5e-4 H 3.8902 Z m 7.9844,5.7812 v 8.625 h 4.4062 c 1.5391,0 2.7344,-0.375 3.5781,-1.125 0.8437,-0.75 1.2656,-1.8164 1.2656,-3.2031 0,-1.375 -0.42188,-2.4297 -1.2656,-3.1719 -0.84375,-0.75 -2.0391,-1.125 -3.5781,-1.125 z"
         id="path223-0" />
    </symbol>
    <symbol
       id="k-8"
       overflow="visible">
      <path
         d="m 3.5625,-23.203 h 7.4219 v 22.781 c 0,3.1133 -0.75,5.4883 -2.25,7.125 C 7.2422,8.3358 5.0821,9.1561 2.25,9.1561 h -3.6562 v -4.875 h 1.2812 c 1.4062,0 2.3672,-0.32031 2.8906,-0.95312 0.53125,-0.63672 0.79688,-1.8867 0.79688,-3.75 z m 0,-9.0312 h 7.4219 v 6.0469 H 3.5625 Z"
         id="path226-4" />
    </symbol>
  </defs>
  <g
     inkscape:label="Camada 1"
     inkscape:groupmode="layer"
     id="layer1">
    <g
       id="g3375"
       transform="matrix(0.97727124,0,0,0.97727124,29.876362,-1.9610221)">
      <path
         d="m -14.085,19.055203 c 1.372213,0 2.48388,-1.111574 2.48388,-2.479147 0,-1.372213 -1.111613,-2.483866 -2.48388,-2.483866 -1.367493,0 -2.479133,1.111599 -2.479133,2.483866 0,1.36728 1.111573,2.479147 2.479133,2.479147 z"
         id="path231"
         style="stroke-width:0.0548207" />
      <path
         d="m -2.7447868,18.715869 c -0.1861066,-0.04187 -0.3722,0.07907 -0.41396,0.265107 -0.1441066,0.651213 -0.34884,1.297707 -0.6092133,1.916374 -0.074533,0.176666 0.00933,0.381373 0.1860934,0.455906 0.041733,0.01867 0.088533,0.02773 0.1348933,0.02773 0.13492,0 0.26512,-0.07907 0.3210133,-0.213934 0.2790133,-0.660426 0.4976533,-1.3442 0.6465066,-2.03736 0.0416,-0.190587 -0.079467,-0.376667 -0.2653199,-0.413933 z"
         id="path233"
         style="stroke-width:0.0548207" />
      <path
         d="m -4.1822001,10.026803 c -0.1070666,-0.1582401 -0.321,-0.2047067 -0.48376,-0.0976 -0.15824,0.107067 -0.2047066,0.321 -0.0976,0.483747 1.0233867,1.539693 1.6512533,3.325853 1.814,5.167719 0.014,0.181387 0.16748,0.316294 0.3488533,0.316294 h 0.032533 c 0.1908,-0.01867 0.33492,-0.186094 0.31628,-0.37668 -0.1721733,-1.95836 -0.8372666,-3.85608 -1.9302932,-5.493587 z"
         id="path235"
         style="stroke-width:0.0548207" />
      <path
         d="m -9.1873199,6.5522697 c 1.1210266,0.5441466 2.1349866,1.2651466 3.0187599,2.1489199 0.069733,0.069733 0.15824,0.1024 0.24648,0.1024 0.0884,0 0.1766666,-0.032533 0.2464666,-0.1024 0.1349067,-0.1349067 0.1349067,-0.3582666 0,-0.49296 -0.9396799,-0.93968 -2.0187066,-1.7071733 -3.2095865,-2.2791066 -0.17216,-0.083733 -0.3813734,-0.00933 -0.4651067,0.1627467 -0.083467,0.1674666 -0.013867,0.3766666 0.1629733,0.4604 z"
         id="path237"
         style="stroke-width:0.0548207" />
      <path
         d="m -23.904466,10.701096 c 0.0604,0.0372 0.120933,0.056 0.186093,0.056 0.116267,0 0.227853,-0.056 0.292947,-0.162746 1.455986,-2.279107 3.679186,-3.9490003 6.261066,-4.7072803 0.186093,-0.056 0.292947,-0.24648 0.237253,-0.4325733 -0.056,-0.1860934 -0.246466,-0.2929334 -0.43256,-0.2372534 -2.744426,0.80004 -5.107293,2.5770133 -6.656306,5.00024 -0.09787,0.167453 -0.0512,0.381387 0.1116,0.483747 z"
         id="path239"
         style="stroke-width:0.0548207" />
      <path
         d="m -25.509066,16.924869 c 0.190813,0 0.34884,-0.15824 0.34884,-0.348826 0,-1.242027 0.20472,-2.460733 0.604733,-3.623547 0.0604,-0.18136 -0.03253,-0.381373 -0.213933,-0.441973 -0.181374,-0.0604 -0.381387,0.03253 -0.441974,0.213933 -0.427866,1.237294 -0.642013,2.530307 -0.642013,3.85136 -0.0053,0.191013 0.149053,0.349053 0.344333,0.349053 z"
         id="path241"
         style="stroke-width:0.0548207" />
      <path
         d="m -18.103893,27.660416 c 0.139627,0 0.274533,-0.08373 0.325493,-0.22336 0.06973,-0.181373 -0.02333,-0.381387 -0.20472,-0.451213 -1.962853,-0.744134 -3.669973,-2.02792 -4.939826,-3.711933 -0.116267,-0.15356 -0.33492,-0.186094 -0.488467,-0.06973 -0.153533,0.116267 -0.186093,0.33492 -0.06973,0.488454 1.348866,1.786159 3.167586,3.153666 5.251426,3.944506 0.04213,0.014 0.08427,0.02333 0.125867,0.02333 z"
         id="path243"
         style="stroke-width:0.0548207" />
      <path
         d="m -7.7406,25.753189 c -0.22784,0.158254 -0.4651333,0.307094 -0.7023733,0.446494 -0.21864,0.125466 -0.4419866,0.246466 -0.67456,0.36276 -0.7441333,0.367466 -1.5257737,0.6512 -2.3303067,0.841986 -0.186093,0.04653 -0.302373,0.23256 -0.2604,0.418654 0.0372,0.158253 0.18136,0.269826 0.339627,0.269826 0.02773,0 0.056,-0.0053 0.07907,-0.0093 0.85592,-0.204707 1.6885198,-0.502373 2.4791464,-0.89296 0.2419867,-0.120933 0.4790267,-0.246493 0.71628,-0.381387 0.2559067,-0.14884 0.5070934,-0.307093 0.7488667,-0.474533 0.15824,-0.107067 0.2,-0.325507 0.088533,-0.483747 -0.1069333,-0.162973 -0.321,-0.204733 -0.48376,-0.09787 z"
         id="path245"
         style="stroke-width:0.0548207" />
      <path
         d="m -18.866986,8.9199763 c -0.162747,0.1024 -0.20924,0.3210133 -0.107067,0.4837466 0.06507,0.1070667 0.181387,0.1627467 0.292947,0.1627467 0.0652,0 0.130266,-0.018667 0.186093,-0.056 0.544133,-0.34412 1.125733,-0.6233466 1.73024,-0.8326133 0.181386,-0.065067 0.279026,-0.2604 0.213933,-0.4419867 -0.0652,-0.1813866 -0.2604,-0.2790266 -0.442,-0.21392 -0.65548,0.2188534 -1.288066,0.5257067 -1.8742,0.8978934 z"
         id="path247"
         style="stroke-width:0.0548207" />
      <path
         d="m -21.467133,11.408283 c -0.9814,1.413987 -1.539693,3.07468 -1.609467,4.795706 -0.0093,0.190814 0.144094,0.35356 0.334907,0.362774 h 0.01387 c 0.18608,0 0.339626,-0.14884 0.34884,-0.334934 0.06507,-1.590906 0.576706,-3.121146 1.48376,-4.428239 0.1116,-0.158254 0.06973,-0.376667 -0.0884,-0.483747 -0.158027,-0.106933 -0.376667,-0.06973 -0.483534,0.0884 z"
         id="path249"
         style="stroke-width:0.0548207" />
      <path
         d="m -16.708707,24.49287 c -1.102399,-0.372174 -2.093266,-0.958267 -2.958399,-1.748894 -0.144107,-0.130133 -0.36276,-0.120933 -0.49296,0.02333 -0.130134,0.14412 -0.120934,0.36276 0.02333,0.49296 0.93496,0.8512 2.013987,1.488506 3.204866,1.893239 0.0372,0.014 0.0744,0.01867 0.1116,0.01867 0.14412,0 0.27904,-0.09293 0.3302,-0.237266 0.0652,-0.1816 -0.03267,-0.3816 -0.218626,-0.442 z"
         id="path251"
         style="stroke-width:0.0548207" />
      <path
         d="m -11.243093,25.172096 c 0.0372,0 0.07453,-0.0053 0.1116,-0.01867 0.57672,-0.195293 1.1349464,-0.446493 1.6604664,-0.753559 0.1674667,-0.0976 0.22336,-0.311574 0.1254667,-0.47904 -0.0976,-0.167454 -0.3115867,-0.223347 -0.4790534,-0.125467 -0.4837467,0.283747 -1.0000267,0.516307 -1.5302397,0.697693 -0.181387,0.0604 -0.27904,0.2604 -0.21864,0.442014 0.05147,0.144119 0.186293,0.237053 0.330413,0.237053 z"
         id="path253"
         style="stroke-width:0.0548207" />
      <path
         d="m -5.5220134,18.450549 c 0.018667,0.0053 0.041733,0.0053 0.0604,0.0053 0.1674534,0 0.3115734,-0.120933 0.34412,-0.288453 0.092933,-0.525507 0.1396134,-1.060453 0.1396134,-1.595387 0,-1.297719 -0.2698134,-2.553653 -0.8000534,-3.730386 -0.079067,-0.17668 -0.28844,-0.251187 -0.4604133,-0.17216 -0.1766666,0.07907 -0.2511733,0.288453 -0.1721466,0.4604 0.4884533,1.0838 0.7396266,2.242053 0.7396266,3.442133 0,0.49296 -0.041867,0.990827 -0.1301333,1.47456 -0.0372,0.1906 0.088267,0.371973 0.27904,0.40452 z"
         id="path255"
         style="stroke-width:0.0548207" />
      <path
         d="m -8.8381066,9.1573496 c -0.1582533,-0.1116 -0.3766933,-0.0744 -0.4837467,0.083733 -0.1116,0.1582667 -0.0744,0.3766933 0.083733,0.48376 0.6047199,0.4233604 1.1488666,0.9257474 1.6186799,1.4932004 0.069733,0.08373 0.1674533,0.125467 0.2698267,0.125467 0.079067,0 0.1582533,-0.02773 0.22336,-0.07907 0.1488133,-0.125467 0.1674533,-0.344134 0.046533,-0.492961 -0.5118,-0.609439 -1.1023866,-1.1538131 -1.75832,-1.6141864 z"
         id="path257"
         style="stroke-width:0.0548207" />
      <path
         d="M -9.2103466,32.274656 H -12.55012 l -0.442,-12.474987 c -0.344133,0.116267 -0.711573,0.181387 -1.097667,0.181387 -0.269826,0 -0.530226,-0.0372 -0.786133,-0.09293 l -0.437053,12.38672 h -3.539773 c -0.190814,0 -0.34884,0.158253 -0.34884,0.34884 0,0.1908 0.15824,0.34884 0.34884,0.34884 h 9.6473327 c 0.1908,0 0.3488267,-0.15824 0.3488267,-0.34884 -0.00533,-0.190587 -0.15824,-0.34884 -0.3535467,-0.34884 z"
         id="path259"
         style="stroke-width:0.0548207" />
      <path
         d="m -17.6434,20.436696 c -0.134906,-0.75356 0.181387,-1.507133 0.679053,-2.042067 -0.33492,-0.525506 -0.530213,-1.14888 -0.530213,-1.82344 0,-0.0976 0.0053,-0.195306 0.01387,-0.292946 l -8.418787,3.311933 c -0.181373,0.06973 -0.283746,0.269814 -0.237266,0.460387 l 0.418653,1.548907 c 0.0512,0.190813 0.237253,0.311586 0.427853,0.283746 l 7.32128,-1.018693 c 0.20944,-0.02307 0.36748,-0.213907 0.325734,-0.427853 z"
         id="path261"
         style="stroke-width:0.0548207" />
      <path
         d="m -15.894613,11.375936 c 0.786106,0.28376 1.307133,1.03732 1.479053,1.8048 0.106933,-0.0093 0.21864,-0.01867 0.3302,-0.01867 0.618653,0 1.20008,0.167454 1.702453,0.460414 l 1.34888,-8.9774269 c 0.02773,-0.1908 -0.09293,-0.37668 -0.28376,-0.4325733 L -12.86668,3.7985497 c -0.186093,-0.0512 -0.381387,0.046533 -0.460413,0.2233467 l -2.78148,6.8470936 c -0.0744,0.1998 0.01387,0.437066 0.21392,0.50688 z"
         id="path263"
         style="stroke-width:0.0548207" />
      <path
         d="m -8.3781733,17.487896 c -0.1301333,-0.167467 -0.3766667,-0.20472 -0.53964,-0.06973 -0.5582933,0.474533 -1.3257737,0.58608 -2.0094937,0.455907 -0.288466,0.697706 -0.804773,1.279066 -1.45128,1.651253 l 6.865747,5.465347 c 0.1535333,0.120933 0.3721733,0.111466 0.5115733,-0.02773 l 1.13496,-1.134946 c 0.1396133,-0.139627 0.1535333,-0.35356 0.032533,-0.507094 z"
         id="path265"
         style="stroke-width:0.0548207" />
    </g>
  </g>
</svg>
