<?xml version="1.0" encoding="UTF-8" standalone="no"?>
<!-- Created with Inkscape (http://www.inkscape.org/) -->

<svg
   width="32"
   height="32"
   viewBox="0 0 32 32"
   version="1.1"
   id="svg5"
   sodipodi:docname="isolar.svg"
   inkscape:version="1.1.1 (3bf5ae0d25, 2021-09-20)"
   xmlns:inkscape="http://www.inkscape.org/namespaces/inkscape"
   xmlns:sodipodi="http://sodipodi.sourceforge.net/DTD/sodipodi-0.dtd"
   xmlns="http://www.w3.org/2000/svg"
   xmlns:svg="http://www.w3.org/2000/svg">
  <sodipodi:namedview
     id="namedview7"
     pagecolor="#ffffff"
     bordercolor="#666666"
     borderopacity="1.0"
     inkscape:pageshadow="2"
     inkscape:pageopacity="0.0"
     inkscape:pagecheckerboard="0"
     inkscape:document-units="px"
     showgrid="false"
     inkscape:zoom="13.01"
     inkscape:cx="27.863182"
     inkscape:cy="14.335127"
     inkscape:window-width="1920"
     inkscape:window-height="1017"
     inkscape:window-x="-8"
     inkscape:window-y="-8"
     inkscape:window-maximized="1"
     inkscape:current-layer="layer1"
     showguides="true"
     inkscape:guide-bbox="true">
    <sodipodi:guide
       position="3.9200615,21.853958"
       orientation="1,0"
       id="guide1279" />
    <sodipodi:guide
       position="16.756341,30.462721"
       orientation="0,-1"
       id="guide1281" />
    <sodipodi:guide
       position="27.901614,21.008455"
       orientation="1,0"
       id="guide1283" />
    <sodipodi:guide
       position="24.212145,1.1006917"
       orientation="0,-1"
       id="guide1285" />
  </sodipodi:namedview>
  <defs
     id="defs2">
    <symbol
       id="e"
       overflow="visible">
      <path
         d="m28.422-1.7031c-1.4688 0.76172-3 1.3359-4.5938 1.7188-1.5859 0.38281-3.2344 0.57812-4.9531 0.57812-5.1562 0-9.2422-1.4375-12.25-4.3125-3.0117-2.875-4.5156-6.7812-4.5156-11.719s1.5039-8.8438 4.5156-11.719c3.0078-2.8828 7.0938-4.3281 12.25-4.3281 1.7188 0 3.3672 0.19531 4.9531 0.57812 1.5938 0.38672 3.125 0.96094 4.5938 1.7188v6.4062c-1.4805-1.0078-2.9375-1.75-4.375-2.2188s-2.9492-0.70312-4.5312-0.70312c-2.8438 0-5.0859 0.91406-6.7188 2.7344-1.625 1.8242-2.4375 4.3359-2.4375 7.5312 0 3.1992 0.8125 5.7109 2.4375 7.5312 1.6328 1.8242 3.875 2.7344 6.7188 2.7344 1.582 0 3.0938-0.23438 4.5312-0.70312 1.4375-0.47656 2.8945-1.2188 4.375-2.2188z"
         id="path169" />
    </symbol>
    <symbol
       id="c"
       overflow="visible">
      <path
         d="m20.797-16.875c-0.64844-0.3125-1.293-0.53516-1.9375-0.67188-0.64844-0.14453-1.293-0.21875-1.9375-0.21875-1.9062 0-3.375 0.60938-4.4062 1.8281-1.0234 1.2188-1.5312 2.9688-1.5312 5.25v10.688h-7.4219v-23.203h7.4219v3.8125c0.94531-1.5195 2.0352-2.6289 3.2656-3.3281 1.2383-0.69531 2.7227-1.0469 4.4531-1.0469 0.25 0 0.51953 0.011719 0.8125 0.03125 0.28906 0.023437 0.71094 0.070313 1.2656 0.14062z"
         id="path172" />
    </symbol>
    <symbol
       id="a"
       overflow="visible">
      <path
         d="m26.719-11.656v2.1094h-17.328c0.17578 1.7422 0.80078 3.0469 1.875 3.9219 1.082 0.86719 2.5859 1.2969 4.5156 1.2969 1.5625 0 3.1602-0.22656 4.7969-0.6875 1.6328-0.46875 3.3164-1.1719 5.0469-2.1094v5.7188c-1.75 0.65625-3.5078 1.1523-5.2656 1.4844-1.75 0.34375-3.5078 0.51562-5.2656 0.51562-4.1992 0-7.4609-1.0625-9.7812-3.1875-2.3242-2.1328-3.4844-5.1289-3.4844-8.9844 0-3.7812 1.1406-6.7539 3.4219-8.9219 2.2812-2.1758 5.4258-3.2656 9.4375-3.2656 3.6445 0 6.5625 1.1016 8.75 3.2969 2.1875 2.1992 3.2812 5.1367 3.2812 8.8125zm-7.625-2.4688c0-1.4062-0.41406-2.5391-1.2344-3.4062-0.8125-0.86328-1.8867-1.2969-3.2188-1.2969-1.4375 0-2.6055 0.40625-3.5 1.2188-0.89844 0.80469-1.4531 1.9648-1.6719 3.4844z"
         id="path175" />
    </symbol>
    <symbol
       id="j"
       overflow="visible">
      <path
         d="m13.969-10.438c-1.5547 0-2.7188 0.26562-3.5 0.79688-0.78125 0.52344-1.1719 1.293-1.1719 2.3125 0 0.9375 0.3125 1.6719 0.9375 2.2031 0.63281 0.53125 1.5078 0.79688 2.625 0.79688 1.3945 0 2.5664-0.5 3.5156-1.5 0.95703-1 1.4375-2.2539 1.4375-3.7656v-0.84375zm11.328-2.7969v13.234h-7.4844v-3.4375c-0.99219 1.4062-2.1094 2.4336-3.3594 3.0781-1.2422 0.63281-2.75 0.95312-4.5312 0.95312-2.4062 0-4.3594-0.69531-5.8594-2.0938-1.4922-1.4062-2.2344-3.2227-2.2344-5.4531 0-2.7266 0.92969-4.7266 2.7969-6 1.875-1.2695 4.8125-1.9062 8.8125-1.9062h4.375v-0.57812c0-1.1641-0.46484-2.0195-1.3906-2.5625-0.92969-0.55078-2.3711-0.82812-4.3281-0.82812-1.5859 0-3.0625 0.16406-4.4375 0.48438-1.3672 0.3125-2.6328 0.78906-3.7969 1.4219v-5.6562c1.582-0.38281 3.1758-0.67578 4.7812-0.875 1.6016-0.20703 3.2031-0.3125 4.7969-0.3125 4.1875 0 7.207 0.82812 9.0625 2.4844 1.8633 1.6484 2.7969 4.3281 2.7969 8.0469z"
         id="path178" />
    </symbol>
    <symbol
       id="b"
       overflow="visible">
      <path
         d="m11.656-29.781v6.5781h7.6562v5.3125h-7.6562v9.8281c0 1.0859 0.21094 1.8203 0.64062 2.2031 0.4375 0.375 1.2891 0.5625 2.5625 0.5625h3.7969v5.2969h-6.3594c-2.9297 0-5-0.60938-6.2188-1.8281-1.2188-1.2266-1.8281-3.3047-1.8281-6.2344v-9.8281h-3.6875v-5.3125h3.6875v-6.5781z"
         id="path181" />
    </symbol>
    <symbol
       id="i"
       overflow="visible">
      <path
         d="m19.344-19.797v-12.438h7.4531v32.234h-7.4531v-3.3594c-1.0234 1.3672-2.1484 2.3672-3.375 3-1.2305 0.63281-2.6523 0.95312-4.2656 0.95312-2.8555 0-5.2031-1.1328-7.0469-3.4062-1.8359-2.2695-2.75-5.1914-2.75-8.7656 0-3.5703 0.91406-6.4922 2.75-8.7656 1.8438-2.2812 4.1914-3.4219 7.0469-3.4219 1.6016 0 3.0195 0.32422 4.25 0.96875 1.2383 0.64844 2.3672 1.6484 3.3906 3zm-4.8906 15.016c1.5938 0 2.8047-0.57812 3.6406-1.7344 0.83203-1.1641 1.25-2.8516 1.25-5.0625 0-2.207-0.41797-3.8906-1.25-5.0469-0.83594-1.1641-2.0469-1.75-3.6406-1.75-1.5742 0-2.7773 0.58594-3.6094 1.75-0.83594 1.1562-1.25 2.8398-1.25 5.0469 0 2.2109 0.41406 3.8984 1.25 5.0625 0.83203 1.1562 2.0352 1.7344 3.6094 1.7344z"
         id="path184" />
    </symbol>
    <symbol
       id="h"
       overflow="visible">
      <path
         d="m15.906-4.7812c1.5938 0 2.8047-0.57812 3.6406-1.7344 0.83203-1.1641 1.25-2.8516 1.25-5.0625 0-2.207-0.41797-3.8906-1.25-5.0469-0.83594-1.1641-2.0469-1.75-3.6406-1.75-1.5859 0-2.8047 0.58594-3.6562 1.75-0.84375 1.168-1.2656 2.8516-1.2656 5.0469 0 2.1992 0.42188 3.8828 1.2656 5.0469 0.85156 1.168 2.0703 1.75 3.6562 1.75zm-4.9219-15.016c1.0195-1.3516 2.1484-2.3516 3.3906-3 1.2383-0.64453 2.6641-0.96875 4.2812-0.96875 2.8633 0 5.2109 1.1406 7.0469 3.4219 1.832 2.2734 2.75 5.1953 2.75 8.7656 0 3.5742-0.91797 6.4961-2.75 8.7656-1.8359 2.2734-4.1836 3.4062-7.0469 3.4062-1.6172 0-3.043-0.32031-4.2812-0.95312-1.2422-0.64453-2.3711-1.6445-3.3906-3v3.3594h-7.4219v-32.234h7.4219z"
         id="path187" />
    </symbol>
    <symbol
       id="g"
       overflow="visible">
      <path
         d="m0.51562-23.203h7.4219l6.2344 15.75 5.2969-15.75h7.4219l-9.7656 25.406c-0.98047 2.5703-2.1211 4.375-3.4219 5.4062-1.3047 1.0312-3.0273 1.5469-5.1719 1.5469h-4.2812v-4.875h2.3125c1.2578 0 2.1758-0.19922 2.75-0.59375 0.57031-0.39844 1.0156-1.1172 1.3281-2.1562l0.21875-0.64062z"
         id="path190" />
    </symbol>
    <symbol
       id="f"
       overflow="visible">
      <path
         d="m11.875-24.891v18.859h2.8594c3.25 0 5.7344-0.80469 7.4531-2.4219 1.7266-1.6133 2.5938-3.9609 2.5938-7.0469 0-3.0625-0.85938-5.3906-2.5781-6.9844-1.7109-1.6016-4.1992-2.4062-7.4688-2.4062zm-7.9844-6.0312h8.4062c4.6953 0 8.1953 0.33594 10.5 1 2.3008 0.66797 4.2695 1.8047 5.9062 3.4062 1.457 1.3984 2.5352 3.0078 3.2344 4.8281 0.70703 1.8242 1.0625 3.8867 1.0625 6.1875 0 2.3359-0.35547 4.418-1.0625 6.25-0.69922 1.8359-1.7773 3.4492-3.2344 4.8438-1.6562 1.5938-3.6484 2.7305-5.9688 3.4062-2.3125 0.66797-5.793 1-10.438 1h-8.4062z"
         id="path193" />
    </symbol>
    <symbol
       id="t"
       overflow="visible">
      <path
         d="m21.688-22.469v5.625c-1.5859-0.65625-3.1172-1.1484-4.5938-1.4844-1.4805-0.33203-2.875-0.5-4.1875-0.5-1.4062 0-2.4531 0.17969-3.1406 0.53125-0.6875 0.35547-1.0312 0.89844-1.0312 1.625 0 0.59375 0.25781 1.0547 0.78125 1.375 0.51953 0.3125 1.4453 0.54297 2.7812 0.6875l1.3125 0.1875c3.8008 0.49219 6.3516 1.2891 7.6562 2.3906 1.3125 1.1055 1.9688 2.8398 1.9688 5.2031 0 2.4688-0.91406 4.3242-2.7344 5.5625-1.8242 1.2422-4.543 1.8594-8.1562 1.8594-1.5312 0-3.1172-0.12109-4.75-0.35938-1.6367-0.23828-3.3203-0.59766-5.0469-1.0781v-5.6406c1.4766 0.71875 2.9922 1.2617 4.5469 1.625 1.5508 0.35547 3.1289 0.53125 4.7344 0.53125 1.4453 0 2.5352-0.19531 3.2656-0.59375 0.73828-0.40625 1.1094-1.0039 1.1094-1.7969 0-0.65625-0.25781-1.1445-0.76562-1.4688-0.5-0.32031-1.5078-0.57812-3.0156-0.76562l-1.2969-0.15625c-3.3047-0.41406-5.6172-1.1797-6.9375-2.2969-1.3242-1.125-1.9844-2.8281-1.9844-5.1094 0-2.457 0.83594-4.2812 2.5156-5.4688 1.6875-1.1875 4.2695-1.7812 7.75-1.7812 1.3633 0 2.7969 0.10547 4.2969 0.3125 1.5078 0.21094 3.1484 0.53906 4.9219 0.98438z"
         id="path196" />
    </symbol>
    <symbol
       id="d"
       overflow="visible">
      <path
         d="m3.5625-23.203h7.4219v23.203h-7.4219zm0-9.0312h7.4219v6.0469h-7.4219z"
         id="path199" />
    </symbol>
    <symbol
       id="s"
       overflow="visible">
      <path
         d="m19.344-3.9375c-1.0234 1.3555-2.1484 2.3516-3.375 2.9844-1.2305 0.63672-2.6523 0.95312-4.2656 0.95312-2.8359 0-5.1797-1.1133-7.0312-3.3438-1.8438-2.2266-2.7656-5.0703-2.7656-8.5312 0-3.457 0.92188-6.2969 2.7656-8.5156 1.8516-2.2188 4.1953-3.3281 7.0312-3.3281 1.6133 0 3.0352 0.32031 4.2656 0.95312 1.2266 0.63672 2.3516 1.6367 3.375 3v-3.4375h7.4531v20.859c0 3.7266-1.1797 6.5781-3.5312 8.5469-2.3555 1.9688-5.7656 2.9531-10.234 2.9531-1.4492 0-2.8516-0.10938-4.2031-0.32812-1.3555-0.21875-2.7148-0.55859-4.0781-1.0156v-5.7812c1.2891 0.75 2.5547 1.3047 3.7969 1.6719 1.25 0.36328 2.5 0.54688 3.75 0.54688 2.4375 0 4.2188-0.53125 5.3438-1.5938 1.1328-1.0625 1.7031-2.7266 1.7031-5zm-4.8906-14.438c-1.5312 0-2.7266 0.57031-3.5781 1.7031-0.85547 1.1367-1.2812 2.7344-1.2812 4.7969 0 2.1367 0.41016 3.75 1.2344 4.8438 0.83203 1.0938 2.0391 1.6406 3.625 1.6406 1.5508 0 2.7539-0.5625 3.6094-1.6875 0.85156-1.1328 1.2812-2.7344 1.2812-4.7969s-0.42969-3.6602-1.2812-4.7969c-0.85547-1.1328-2.0586-1.7031-3.6094-1.7031z"
         id="path202" />
    </symbol>
    <symbol
       id="r"
       overflow="visible">
      <path
         d="m26.891-14.125v14.125h-7.4688v-10.812c0-2-0.046875-3.3789-0.14062-4.1406-0.085938-0.75781-0.23438-1.3203-0.45312-1.6875-0.29297-0.47656-0.6875-0.85156-1.1875-1.125-0.49219-0.26953-1.0547-0.40625-1.6875-0.40625-1.5547 0-2.7734 0.60156-3.6562 1.7969-0.875 1.1992-1.3125 2.8555-1.3125 4.9688v11.406h-7.4219v-23.203h7.4219v3.4062c1.1133-1.3516 2.2969-2.3516 3.5469-3 1.2578-0.64453 2.6484-0.96875 4.1719-0.96875 2.6758 0 4.707 0.82422 6.0938 2.4688 1.3945 1.6484 2.0938 4.0391 2.0938 7.1719z"
         id="path205" />
    </symbol>
    <symbol
       id="q"
       overflow="visible">
      <path
         d="m22.312-22.469v6.0469c-1.0117-0.69531-2.0273-1.207-3.0469-1.5312-1.0117-0.33203-2.0625-0.5-3.1562-0.5-2.0625 0-3.6719 0.60547-4.8281 1.8125-1.1562 1.2109-1.7344 2.8984-1.7344 5.0625 0 2.168 0.57812 3.8555 1.7344 5.0625 1.1562 1.2109 2.7656 1.8125 4.8281 1.8125 1.1641 0 2.2695-0.17188 3.3125-0.51562 1.0391-0.34375 2.0039-0.85156 2.8906-1.5312v6.0625c-1.168 0.42969-2.3516 0.74219-3.5469 0.95312-1.1875 0.21875-2.3828 0.32812-3.5781 0.32812-4.1875 0-7.4648-1.0703-9.8281-3.2188-2.3555-2.1445-3.5312-5.1289-3.5312-8.9531 0-3.8203 1.1758-6.8047 3.5312-8.9531 2.3633-2.1562 5.6406-3.2344 9.8281-3.2344 1.207 0 2.3984 0.10938 3.5781 0.32812 1.1875 0.21875 2.3672 0.54297 3.5469 0.96875z"
         id="path208" />
    </symbol>
    <symbol
       id="p"
       overflow="visible">
      <path
         d="m3.5625-32.234h7.4219v32.234h-7.4219z"
         id="path211" />
    </symbol>
    <symbol
       id="o"
       overflow="visible">
      <path
         d="m18.828-32.234v4.875h-4.0938c-1.0547 0-1.7891 0.19531-2.2031 0.57812-0.41797 0.375-0.625 1.0312-0.625 1.9688v1.6094h6.3438v5.3125h-6.3438v17.891h-7.4062v-17.891h-3.6875v-5.3125h3.6875v-1.6094c0-2.5312 0.70312-4.3984 2.1094-5.6094 1.4062-1.207 3.5859-1.8125 6.5469-1.8125z"
         id="path214" />
    </symbol>
    <symbol
       id="n"
       overflow="visible">
      <path
         d="m26.891-14.125v14.125h-7.4688v-10.766c0-2.0312-0.046875-3.4258-0.14062-4.1875-0.085938-0.75781-0.23438-1.3203-0.45312-1.6875-0.29297-0.47656-0.6875-0.85156-1.1875-1.125-0.49219-0.26953-1.0547-0.40625-1.6875-0.40625-1.5547 0-2.7734 0.60156-3.6562 1.7969-0.875 1.1992-1.3125 2.8555-1.3125 4.9688v11.406h-7.4219v-32.234h7.4219v12.438c1.1133-1.3516 2.2969-2.3516 3.5469-3 1.2578-0.64453 2.6484-0.96875 4.1719-0.96875 2.6758 0 4.707 0.82422 6.0938 2.4688 1.3945 1.6484 2.0938 4.0391 2.0938 7.1719z"
         id="path217" />
    </symbol>
    <symbol
       id="m"
       overflow="visible">
      <path
         d="m3.8906-30.922h8.9062l11.25 21.203v-21.203h7.5625v30.922h-8.9062l-11.25-21.219v21.219h-7.5625z"
         id="path220" />
    </symbol>
    <symbol
       id="l"
       overflow="visible">
      <path
         d="m3.8906-30.922h13.234c3.9375 0 6.957 0.875 9.0625 2.625 2.1016 1.7422 3.1562 4.2266 3.1562 7.4531 0 3.25-1.0547 5.75-3.1562 7.5-2.1055 1.7422-5.125 2.6094-9.0625 2.6094h-5.25v10.734h-7.9844zm7.9844 5.7812v8.625h4.4062c1.5391 0 2.7344-0.375 3.5781-1.125s1.2656-1.8164 1.2656-3.2031c0-1.375-0.42188-2.4297-1.2656-3.1719-0.84375-0.75-2.0391-1.125-3.5781-1.125z"
         id="path223" />
    </symbol>
    <symbol
       id="k"
       overflow="visible">
      <path
         d="m3.5625-23.203h7.4219v22.781c0 3.1133-0.75 5.4883-2.25 7.125-1.4922 1.6328-3.6523 2.4531-6.4844 2.4531h-3.6562v-4.875h1.2812c1.4062 0 2.3672-0.32031 2.8906-0.95312 0.53125-0.63672 0.79688-1.8867 0.79688-3.75zm0-9.0312h7.4219v6.0469h-7.4219z"
         id="path226" />
    </symbol>
    <symbol
       id="v"
       overflow="visible">
      <path
         d="m20.609-1.2344c-1.0625 0.55469-2.1719 0.96875-3.3281 1.25-1.1484 0.28125-2.3438 0.42188-3.5938 0.42188-3.7422 0-6.7031-1.0391-8.8906-3.125-2.1797-2.0938-3.2656-4.9258-3.2656-8.5 0-3.582 1.0859-6.4141 3.2656-8.5 2.1875-2.0938 5.1484-3.1406 8.8906-3.1406 1.25 0 2.4453 0.14062 3.5938 0.42188 1.1562 0.27344 2.2656 0.68359 3.3281 1.2344v4.6406c-1.0742-0.72656-2.1328-1.2578-3.1719-1.5938-1.043-0.34375-2.1367-0.51562-3.2812-0.51562-2.0625 0-3.6875 0.66406-4.875 1.9844-1.1797 1.3242-1.7656 3.1484-1.7656 5.4688 0 2.3125 0.58594 4.1328 1.7656 5.4531 1.1875 1.3242 2.8125 1.9844 4.875 1.9844 1.1445 0 2.2383-0.17188 3.2812-0.51562 1.0391-0.34375 2.0977-0.87891 3.1719-1.6094z"
         id="path1809" />
    </symbol>
    <symbol
       id="d-5"
       overflow="visible">
      <path
         d="m15.078-12.25c-0.46875-0.21875-0.9375-0.37891-1.4062-0.48438-0.46094-0.10156-0.92969-0.15625-1.4062-0.15625-1.375 0-2.4375 0.44531-3.1875 1.3281-0.74219 0.88672-1.1094 2.1562-1.1094 3.8125v7.75h-5.3906v-16.828h5.3906v2.7656c0.6875-1.1016 1.4766-1.9062 2.375-2.4062 0.89453-0.50781 1.9688-0.76562 3.2188-0.76562 0.17578 0 0.36719 0.011719 0.57812 0.03125 0.21875 0.011719 0.52344 0.042969 0.92188 0.09375z"
         id="path1812" />
    </symbol>
    <symbol
       id="b-9"
       overflow="visible">
      <path
         d="m19.375-8.4531v1.5312h-12.562c0.125 1.2617 0.57812 2.2109 1.3594 2.8438 0.78125 0.625 1.875 0.9375 3.2812 0.9375 1.125 0 2.2812-0.16406 3.4688-0.5 1.1875-0.33203 2.4062-0.84375 3.6562-1.5312v4.1562c-1.2734 0.48047-2.543 0.83984-3.8125 1.0781-1.2734 0.25-2.543 0.375-3.8125 0.375-3.043 0-5.4062-0.76953-7.0938-2.3125-1.6875-1.5508-2.5312-3.7227-2.5312-6.5156 0-2.75 0.82812-4.9102 2.4844-6.4844 1.6562-1.5703 3.9375-2.3594 6.8438-2.3594 2.6328 0 4.7422 0.79688 6.3281 2.3906 1.5938 1.5938 2.3906 3.7266 2.3906 6.3906zm-5.5312-1.7969c0-1.0195-0.29688-1.8438-0.89062-2.4688s-1.3711-0.9375-2.3281-0.9375c-1.043 0-1.8906 0.29688-2.5469 0.89062-0.64844 0.58594-1.0547 1.4219-1.2188 2.5156z"
         id="path1815" />
    </symbol>
    <symbol
       id="j-6"
       overflow="visible">
      <path
         d="m10.125-7.5781c-1.125 0-1.9688 0.19531-2.5312 0.57812-0.5625 0.38672-0.84375 0.94922-0.84375 1.6875 0 0.67969 0.22266 1.2109 0.67188 1.5938 0.45703 0.38672 1.0938 0.57812 1.9062 0.57812 1.0078 0 1.8594-0.35938 2.5469-1.0781 0.69531-0.72656 1.0469-1.6406 1.0469-2.7344v-0.625zm8.2188-2.0156v9.5938h-5.4219v-2.5c-0.71875 1.0234-1.5312 1.7656-2.4375 2.2344-0.89844 0.46875-1.9922 0.70312-3.2812 0.70312-1.75 0-3.168-0.50391-4.25-1.5156-1.0859-1.0195-1.625-2.3438-1.625-3.9688 0-1.9688 0.67578-3.4102 2.0312-4.3281 1.3516-0.92578 3.4844-1.3906 6.3906-1.3906h3.1719v-0.42188c0-0.85156-0.33984-1.4766-1.0156-1.875-0.66797-0.39453-1.7148-0.59375-3.1406-0.59375-1.1484 0-2.2148 0.11719-3.2031 0.34375-0.99219 0.23047-1.9141 0.57812-2.7656 1.0469v-4.1094c1.1445-0.28125 2.2969-0.49219 3.4531-0.64062 1.1641-0.14453 2.332-0.21875 3.5-0.21875 3.0312 0 5.2188 0.60156 6.5625 1.7969 1.3516 1.1992 2.0312 3.1484 2.0312 5.8438z"
         id="path1818" />
    </symbol>
    <symbol
       id="c-0"
       overflow="visible">
      <path
         d="m8.4531-21.609v4.7812h5.5469v3.8438h-5.5469v7.1406c0 0.78125 0.15625 1.3125 0.46875 1.5938 0.3125 0.27344 0.92578 0.40625 1.8438 0.40625h2.7656v3.8438h-4.6094c-2.125 0-3.6328-0.44141-4.5156-1.3281-0.88672-0.88281-1.3281-2.3906-1.3281-4.5156v-7.1406h-2.6719v-3.8438h2.6719v-4.7812z"
         id="path1821" />
    </symbol>
    <symbol
       id="i-2"
       overflow="visible">
      <path
         d="m14.031-14.359v-9.0156h5.4062v23.375h-5.4062v-2.4375c-0.74219 0.99219-1.5586 1.7188-2.4531 2.1875-0.88672 0.45703-1.918 0.6875-3.0938 0.6875-2.0742 0-3.7773-0.82031-5.1094-2.4688-1.3359-1.6445-2-3.7656-2-6.3594s0.66406-4.7109 2-6.3594c1.332-1.6562 3.0352-2.4844 5.1094-2.4844 1.1641 0 2.1953 0.23438 3.0938 0.70312 0.89453 0.46875 1.7109 1.1953 2.4531 2.1719zm-3.5469 10.891c1.1562 0 2.0352-0.42188 2.6406-1.2656 0.60156-0.84375 0.90625-2.0625 0.90625-3.6562 0-1.6016-0.30469-2.8281-0.90625-3.6719-0.60547-0.84375-1.4844-1.2656-2.6406-1.2656-1.1484 0-2.0234 0.42188-2.625 1.2656-0.60547 0.84375-0.90625 2.0703-0.90625 3.6719 0 1.5938 0.30078 2.8125 0.90625 3.6562 0.60156 0.84375 1.4766 1.2656 2.625 1.2656z"
         id="path1824" />
    </symbol>
    <symbol
       id="g-6"
       overflow="visible">
      <path
         d="m11.531-3.4688c1.1562 0 2.0352-0.42188 2.6406-1.2656 0.60156-0.84375 0.90625-2.0625 0.90625-3.6562 0-1.6016-0.30469-2.8281-0.90625-3.6719-0.60547-0.84375-1.4844-1.2656-2.6406-1.2656-1.1484 0-2.0273 0.42969-2.6406 1.2812-0.61719 0.84375-0.92188 2.0625-0.92188 3.6562 0 1.5859 0.30469 2.8047 0.92188 3.6562 0.61328 0.84375 1.4922 1.2656 2.6406 1.2656zm-3.5625-10.891c0.73828-0.97656 1.5547-1.7031 2.4531-2.1719 0.90625-0.46875 1.9414-0.70312 3.1094-0.70312 2.0703 0 3.7734 0.82812 5.1094 2.4844 1.332 1.6484 2 3.7656 2 6.3594s-0.66797 4.7148-2 6.3594c-1.3359 1.6484-3.0391 2.4688-5.1094 2.4688-1.168 0-2.2031-0.23438-3.1094-0.70312-0.89844-0.46875-1.7148-1.1914-2.4531-2.1719v2.4375h-5.3906v-23.375h5.3906z"
         id="path1827" />
    </symbol>
    <symbol
       id="f-4"
       overflow="visible">
      <path
         d="m0.375-16.828h5.375l4.5312 11.422 3.8438-11.422h5.375l-7.0781 18.422c-0.71094 1.875-1.5391 3.1797-2.4844 3.9219-0.94922 0.75-2.1992 1.125-3.75 1.125h-3.1094v-3.5312h1.6875c0.90625 0 1.5664-0.14844 1.9844-0.4375 0.41406-0.29297 0.73828-0.8125 0.96875-1.5625l0.15625-0.46875z"
         id="path1830" />
    </symbol>
    <symbol
       id="h-0"
       overflow="visible">
      <path
         d="m11.812-13.75c0.90625 0 1.5938-0.19531 2.0625-0.59375 0.47656-0.40625 0.71875-1 0.71875-1.7812 0-0.76953-0.24219-1.3594-0.71875-1.7656-0.46875-0.40625-1.1562-0.60938-2.0625-0.60938h-3.2031v4.75zm0.1875 9.8125c1.1641 0 2.0391-0.24219 2.625-0.73438 0.58203-0.48828 0.875-1.2266 0.875-2.2188 0-0.97656-0.29297-1.707-0.875-2.1875-0.57422-0.48828-1.4492-0.73438-2.625-0.73438h-3.3906v5.875zm5.375-8.0625c1.25 0.35547 2.2109 1.0234 2.8906 2 0.67578 0.96875 1.0156 2.1641 1.0156 3.5781 0 2.1562-0.73047 3.7656-2.1875 4.8281-1.4609 1.0625-3.6836 1.5938-6.6719 1.5938h-9.5938v-22.422h8.6719c3.1133 0 5.3672 0.46875 6.7656 1.4062 1.4062 0.9375 2.1094 2.4453 2.1094 4.5156 0 1.0938-0.25781 2.0273-0.76562 2.7969-0.51172 0.76172-1.2578 1.3281-2.2344 1.7031z"
         id="path1833" />
    </symbol>
    <symbol
       id="a-7"
       overflow="visible">
      <path
         d="m10.594-13.391c-1.1992 0-2.1094 0.43359-2.7344 1.2969-0.625 0.85547-0.9375 2.0898-0.9375 3.7031 0 1.6055 0.3125 2.8398 0.9375 3.7031 0.625 0.85547 1.5352 1.2812 2.7344 1.2812 1.1641 0 2.0625-0.42578 2.6875-1.2812 0.625-0.86328 0.9375-2.0977 0.9375-3.7031 0-1.6133-0.3125-2.8477-0.9375-3.7031-0.625-0.86328-1.5234-1.2969-2.6875-1.2969zm0-3.8438c2.8945 0 5.1562 0.78125 6.7812 2.3438s2.4375 3.7305 2.4375 6.5c0 2.7617-0.8125 4.9219-2.4375 6.4844s-3.8867 2.3438-6.7812 2.3438c-2.9062 0-5.1797-0.78125-6.8125-2.3438-1.6367-1.5625-2.4531-3.7227-2.4531-6.4844 0-2.7695 0.81641-4.9375 2.4531-6.5 1.6328-1.5625 3.9062-2.3438 6.8125-2.3438z"
         id="path1836" />
    </symbol>
    <symbol
       id="e-9"
       overflow="visible">
      <path
         d="m18.172-14.031c0.6875-1.0391 1.4922-1.832 2.4219-2.375 0.9375-0.55078 1.9688-0.82812 3.0938-0.82812 1.9375 0 3.4102 0.60156 4.4219 1.7969 1.0078 1.1875 1.5156 2.918 1.5156 5.1875v10.25h-5.4062v-8.7656c0.007812-0.13281 0.015625-0.26953 0.015625-0.40625 0.007813-0.14453 0.015625-0.34766 0.015625-0.60938 0-1.1875-0.17969-2.0469-0.53125-2.5781-0.35547-0.53906-0.92188-0.8125-1.7031-0.8125-1.0234 0-1.8086 0.42188-2.3594 1.2656-0.55469 0.83594-0.83984 2.0469-0.85938 3.6406v8.2656h-5.4062v-8.7656c0-1.8633-0.16406-3.0625-0.48438-3.5938-0.32422-0.53906-0.89844-0.8125-1.7188-0.8125-1.0312 0-1.8281 0.42188-2.3906 1.2656-0.55469 0.84375-0.82812 2.0547-0.82812 3.625v8.2812h-5.4219v-16.828h5.4219v2.4688c0.65625-0.94531 1.4102-1.6602 2.2656-2.1406 0.85156-0.48828 1.7969-0.73438 2.8281-0.73438 1.1641 0 2.1914 0.28125 3.0781 0.84375 0.89453 0.5625 1.5703 1.3516 2.0312 2.3594z"
         id="path1839" />
    </symbol>
    <symbol
       id="u"
       overflow="visible">
      <path
         d="m18.438-21.719v4.75c-1.2422-0.55078-2.4492-0.96875-3.625-1.25-1.168-0.28125-2.2734-0.42188-3.3125-0.42188-1.375 0-2.3984 0.19531-3.0625 0.57812-0.65625 0.375-0.98438 0.96484-0.98438 1.7656 0 0.60547 0.21875 1.0742 0.65625 1.4062 0.44531 0.33594 1.2578 0.62109 2.4375 0.85938l2.4688 0.5c2.4883 0.5 4.2578 1.2617 5.3125 2.2812 1.0508 1.0234 1.5781 2.4766 1.5781 4.3594 0 2.4688-0.73438 4.3086-2.2031 5.5156-1.4688 1.2109-3.7109 1.8125-6.7188 1.8125-1.4297 0-2.8594-0.13672-4.2969-0.40625-1.4297-0.26953-2.8555-0.67188-4.2812-1.2031v-4.875c1.4258 0.76172 2.8047 1.3359 4.1406 1.7188 1.3438 0.38672 2.6328 0.57812 3.875 0.57812 1.2578 0 2.2227-0.20703 2.8906-0.625 0.67578-0.42578 1.0156-1.0312 1.0156-1.8125 0-0.69531-0.23047-1.2344-0.6875-1.6094-0.44922-0.38281-1.3555-0.72656-2.7188-1.0312l-2.2344-0.5c-2.25-0.47656-3.8984-1.2422-4.9375-2.2969-1.0312-1.0508-1.5469-2.4688-1.5469-4.25 0-2.2383 0.71875-3.957 2.1562-5.1562 1.4453-1.1953 3.5234-1.7969 6.2344-1.7969 1.2266 0 2.4922 0.09375 3.7969 0.28125 1.3008 0.17969 2.6484 0.45312 4.0469 0.82812z"
         id="path1842" />
    </symbol>
    <symbol
       id="t-4"
       overflow="visible">
      <path
         d="m2.5781-23.375h5.3906v23.375h-5.3906z"
         id="path1845" />
    </symbol>
    <symbol
       id="s-2"
       overflow="visible">
      <path
         d="m15.734-16.297v4.0781c-1.1562-0.47656-2.2734-0.83594-3.3438-1.0781-1.0742-0.23828-2.0859-0.35938-3.0312-0.35938-1.0234 0-1.7812 0.13281-2.2812 0.39062-0.49219 0.25-0.73438 0.64062-0.73438 1.1719 0 0.42969 0.1875 0.76172 0.5625 1 0.375 0.23047 1.0469 0.39844 2.0156 0.5l0.95312 0.14062c2.75 0.34375 4.5977 0.91797 5.5469 1.7188 0.95703 0.80469 1.4375 2.0625 1.4375 3.7812 0 1.793-0.66406 3.1406-1.9844 4.0469-1.3242 0.89844-3.2969 1.3438-5.9219 1.3438-1.1172 0-2.2656-0.089844-3.4531-0.26562-1.1875-0.17578-2.4062-0.4375-3.6562-0.78125v-4.0938c1.0703 0.52344 2.1719 0.91406 3.2969 1.1719 1.125 0.26172 2.2695 0.39062 3.4375 0.39062 1.0508 0 1.8438-0.14453 2.375-0.4375 0.53125-0.28906 0.79688-0.72266 0.79688-1.2969 0-0.47656-0.18359-0.83203-0.54688-1.0625-0.36719-0.23828-1.0938-0.42188-2.1875-0.54688l-0.95312-0.125c-2.3867-0.30078-4.0625-0.85938-5.0312-1.6719-0.96094-0.8125-1.4375-2.0391-1.4375-3.6875 0-1.7812 0.60938-3.1016 1.8281-3.9688 1.2188-0.86328 3.0938-1.2969 5.625-1.2969 0.98828 0 2.0312 0.078125 3.125 0.23438 1.0938 0.14844 2.2812 0.38281 3.5625 0.70312z"
         id="path1848" />
    </symbol>
    <symbol
       id="r-6"
       overflow="visible">
      <path
         d="m13.656-23.375v3.5312h-2.9688c-0.76172 0-1.293 0.14062-1.5938 0.42188-0.30469 0.27344-0.45312 0.74609-0.45312 1.4219v1.1719h4.5938v3.8438h-4.5938v12.984h-5.375v-12.984h-2.6875v-3.8438h2.6875v-1.1719c0-1.832 0.50781-3.1875 1.5312-4.0625 1.0195-0.875 2.6016-1.3125 4.75-1.3125z"
         id="path1851" />
    </symbol>
    <symbol
       id="q-9"
       overflow="visible">
      <path
         d="m19.5-10.25v10.25h-5.4062v-7.8125c0-1.4688-0.039062-2.4766-0.10938-3.0312-0.0625-0.55078-0.17188-0.95703-0.32812-1.2188-0.21094-0.35156-0.49609-0.625-0.85938-0.8125-0.35547-0.19531-0.76562-0.29688-1.2344-0.29688-1.1172 0-1.9961 0.43359-2.6406 1.2969-0.63672 0.86719-0.95312 2.0625-0.95312 3.5938v8.2812h-5.3906v-23.375h5.3906v9.0156c0.80078-0.97656 1.6562-1.7031 2.5625-2.1719 0.91406-0.46875 1.9258-0.70312 3.0312-0.70312 1.9453 0 3.4219 0.60156 4.4219 1.7969 1.0078 1.1875 1.5156 2.918 1.5156 5.1875z"
         id="path1854" />
    </symbol>
    <symbol
       id="p-0"
       overflow="visible">
      <path
         d="m2.8281-22.422h6.4531l8.1562 15.375v-15.375h5.4844v22.422h-6.4531l-8.1562-15.391v15.391h-5.4844z"
         id="path1857" />
    </symbol>
    <symbol
       id="o-5"
       overflow="visible">
      <path
         d="m2.4062-6.5469v-10.281h5.4062v1.6875c0 0.90625-0.007812 2.0547-0.015625 3.4375-0.011719 1.375-0.015625 2.293-0.015625 2.75 0 1.3555 0.03125 2.3281 0.09375 2.9219 0.070312 0.59375 0.19531 1.0273 0.375 1.2969 0.21875 0.35547 0.50391 0.625 0.85938 0.8125 0.35156 0.1875 0.75781 0.28125 1.2188 0.28125 1.125 0 2.0039-0.42578 2.6406-1.2812 0.64453-0.86328 0.96875-2.0625 0.96875-3.5938v-8.3125h5.375v16.828h-5.375v-2.4375c-0.8125 0.98047-1.6719 1.7031-2.5781 2.1719s-1.9023 0.70312-2.9844 0.70312c-1.9492 0-3.4336-0.59375-4.4531-1.7812-1.0117-1.1953-1.5156-2.9297-1.5156-5.2031z"
         id="path1860" />
    </symbol>
    <symbol
       id="n-3"
       overflow="visible">
      <path
         d="m19.5-10.25v10.25h-5.4062v-7.8438c0-1.4453-0.039062-2.4453-0.10938-3-0.0625-0.55078-0.17188-0.95703-0.32812-1.2188-0.21094-0.35156-0.49609-0.625-0.85938-0.8125-0.35547-0.19531-0.76562-0.29688-1.2344-0.29688-1.1172 0-1.9961 0.43359-2.6406 1.2969-0.63672 0.86719-0.95312 2.0625-0.95312 3.5938v8.2812h-5.3906v-16.828h5.3906v2.4688c0.80078-0.97656 1.6562-1.7031 2.5625-2.1719 0.91406-0.46875 1.9258-0.70312 3.0312-0.70312 1.9453 0 3.4219 0.60156 4.4219 1.7969 1.0078 1.1875 1.5156 2.918 1.5156 5.1875z"
         id="path1863" />
    </symbol>
    <symbol
       id="m-5"
       overflow="visible">
      <path
         d="m2.8281-22.422h9.5938c2.8516 0 5.0391 0.63672 6.5625 1.9062 1.5312 1.2617 2.2969 3.0625 2.2969 5.4062 0 2.3555-0.76562 4.168-2.2969 5.4375-1.5234 1.2617-3.7109 1.8906-6.5625 1.8906h-3.8125v7.7812h-5.7812zm5.7812 4.1875v6.2656h3.2031c1.1133 0 1.9766-0.26953 2.5938-0.8125 0.61328-0.55078 0.92188-1.3281 0.92188-2.3281s-0.30859-1.7695-0.92188-2.3125c-0.61719-0.53906-1.4805-0.8125-2.5938-0.8125z"
         id="path1866" />
    </symbol>
    <symbol
       id="l-8"
       overflow="visible">
      <path
         d="m2.5781-16.828h5.3906v16.531c0 2.25-0.54297 3.9688-1.625 5.1562-1.0859 1.1875-2.6523 1.7812-4.7031 1.7812h-2.6562v-3.5312h0.92188c1.0195 0 1.7188-0.23047 2.0938-0.6875 0.38281-0.46094 0.57812-1.3672 0.57812-2.7188zm0-6.5469h5.3906v4.3906h-5.3906z"
         id="path1869" />
    </symbol>
    <symbol
       id="k-7"
       overflow="visible">
      <path
         d="m16.172-16.297v4.3906c-0.73047-0.5-1.4648-0.86719-2.2031-1.1094-0.73047-0.25-1.4922-0.375-2.2812-0.375-1.5 0-2.6719 0.44531-3.5156 1.3281-0.83594 0.875-1.25 2.1016-1.25 3.6719 0 1.5742 0.41406 2.7969 1.25 3.6719 0.84375 0.875 2.0156 1.3125 3.5156 1.3125 0.84375 0 1.6406-0.125 2.3906-0.375 0.75781-0.25 1.457-0.61719 2.0938-1.1094v4.3906c-0.83594 0.3125-1.6875 0.54688-2.5625 0.70312-0.86719 0.15625-1.7305 0.23438-2.5938 0.23438-3.043 0-5.418-0.77344-7.125-2.3281-1.7109-1.5625-2.5625-3.7266-2.5625-6.5 0-2.7812 0.85156-4.9453 2.5625-6.5 1.707-1.5625 4.082-2.3438 7.125-2.3438 0.875 0 1.7383 0.078125 2.5938 0.23438 0.86328 0.15625 1.7188 0.39062 2.5625 0.70312z"
         id="path1872" />
    </symbol>
  </defs>
  <g
     inkscape:label="Camada 1"
     inkscape:groupmode="layer"
     id="layer1">
    <path
       d="m 19.490582,9.1389399 c 0,-1.7962895 -1.461371,-3.2572139 -3.257214,-3.2572139 -1.795844,0 -3.257217,1.4613701 -3.257217,3.2572139 0,1.7958471 1.461373,3.2578301 3.257217,3.2578301 1.796066,0 3.257214,-1.461595 3.257214,-3.2578301 z m -3.256993,2.0555211 c -1.133202,0 -2.054849,-0.92254 -2.054849,-2.0555211 0,-1.132978 0.921924,-2.0548492 2.054849,-2.0548492 1.132926,0 2.05485,0.9219267 2.05485,2.0548492 0,1.1329251 -0.9217,2.0555211 -2.05485,2.0555211 z"
       id="path1877"
       style="stroke-width:0.0558199" />
    <path
       d="M 16.834662,4.7584567 V 3.2188281 c 0,-0.3320834 -0.26907,-0.601183 -0.601183,-0.601183 -0.332113,0 -0.601183,0.2690698 -0.601183,0.601183 v 1.5396286 c 0,0.3320871 0.26907,0.6011842 0.601183,0.6011842 0.332113,0 0.601183,-0.269071 0.601183,-0.6011842 z"
       id="path1879"
       style="stroke-width:0.0558199" />
    <path
       d="m 15.632856,13.519704 v 1.538513 c 0,0.332084 0.269067,0.601184 0.60118,0.601184 0.332113,0 0.601183,-0.269071 0.601183,-0.601184 v -1.538513 c 0,-0.332084 -0.26907,-0.601184 -0.601183,-0.601184 -0.332302,0 -0.60118,0.26907 -0.60118,0.601184 z"
       id="path1881"
       style="stroke-width:0.0558199" />
    <path
       d="m 22.754943,9.1389399 c 0,-0.3320834 -0.26907,-0.6011806 -0.601183,-0.6011806 h -1.538514 c -0.332084,0 -0.601183,0.2690699 -0.601183,0.6011806 0,0.3321144 0.26907,0.6011842 0.601183,0.6011842 h 1.538514 c 0.332083,0 0.601183,-0.2690698 0.601183,-0.6011842 z"
       id="path1883"
       style="stroke-width:0.0558199" />
    <path
       d="m 9.7120154,9.1389399 c 0,0.3320871 0.269069,0.6011842 0.6011826,0.6011842 h 1.5403 c 0.332083,0 0.601183,-0.2690698 0.601183,-0.6011842 0,-0.3321107 -0.26907,-0.6011806 -0.601183,-0.6011806 h -1.5403 c -0.3318676,0 -0.6011826,0.2688501 -0.6011826,0.6011806 z"
       id="path1885"
       style="stroke-width:0.0558199" />
    <path
       d="m 19.756846,6.4662736 1.087597,-1.0875975 c 0.235054,-0.235054 0.235054,-0.6159761 0,-0.8501424 -0.235051,-0.2350516 -0.615306,-0.2350516 -0.85014,0 l -1.0876,1.0875999 c -0.235051,0.235054 -0.235051,0.6159761 0,0.85014 0.117528,0.1175282 0.271035,0.1766201 0.425194,0.1766201 0.15394,-4.83e-4 0.307446,-0.059093 0.424975,-0.1766201 z"
       id="path1887"
       style="stroke-width:0.0558199" />
    <path
       d="m 12.049204,13.926074 c 0.153504,0 0.307444,-0.05844 0.424539,-0.175963 l 1.087599,-1.088267 c 0.235053,-0.235054 0.235053,-0.615305 0,-0.85014 -0.235054,-0.235054 -0.615305,-0.235054 -0.850141,0 l -1.087598,1.088269 c -0.235054,0.235051 -0.235054,0.615304 0,0.850138 0.117963,0.117752 0.27147,0.175963 0.425627,0.175963 z"
       id="path1889"
       style="stroke-width:0.0558199" />
    <path
       d="m 19.994078,13.750239 c 0.117529,0.117529 0.271035,0.175962 0.425194,0.175962 0.153507,0 0.307447,-0.05843 0.42454,-0.175962 0.235052,-0.235051 0.235052,-0.615304 0,-0.850138 l -1.0876,-1.088269 c -0.235051,-0.234183 -0.615304,-0.235054 -0.850138,0 -0.235054,0.235052 -0.235054,0.615305 0,0.85014 z"
       id="path1891"
       style="stroke-width:0.0558199" />
    <path
       d="m 13.136579,6.6421066 c 0.153504,0 0.307446,-0.059093 0.424539,-0.1766201 0.235054,-0.23418 0.235054,-0.6153045 0,-0.85014 L 12.473521,4.5277478 c -0.235054,-0.2350527 -0.615306,-0.2350527 -0.850142,0 -0.235052,0.2341825 -0.235052,0.6153045 0,0.8501412 l 1.087599,1.0875975 c 0.117752,0.1179627 0.27147,0.1766201 0.425627,0.1766201 z"
       id="path1893"
       style="stroke-width:0.0558199" />
    <path
       d="m 22.742926,18.930562 c -0.09502,-0.126086 -0.244135,-0.200091 -0.40183,-0.200091 H 9.9042025 c -0.158065,0 -0.306809,0.07419 -0.401828,0.200091 l -5.196775,6.87196 c -0.11512,0.152218 -0.134493,0.356881 -0.04952,0.527912 0.08497,0.171588 0.259666,0.279584 0.450804,0.279584 h 8.8320375 v 1.80762 h -1.286072 c -0.278302,0 -0.503818,0.225493 -0.503818,0.50382 0,0.278327 0.225492,0.503818 0.503818,0.503818 h 7.739729 c 0.278302,0 0.503818,-0.225491 0.503818,-0.503818 0,-0.278327 -0.225493,-0.50382 -0.503818,-0.50382 h -1.285885 v -1.80762 h 8.832037 0.0058 c 0.278303,0 0.503819,-0.225493 0.503819,-0.503819 0,-0.138146 -0.0561,-0.264231 -0.146735,-0.355238 z m -0.652907,0.807515 0.421202,0.556772 h -3.501707 l -0.180541,-0.556772 z m -7.615294,0 h 3.294707 l 0.180542,0.556772 h -3.655238 z m -0.506717,1.564037 h 4.308143 l 0.412796,1.272365 h -5.133621 z m -3.813309,-1.564037 h 3.260511 l -0.179994,0.556772 H 9.7336475 Z m 1.360266,5.864322 H 5.7194085 l 1.53204,-2.02524 c 0.01808,0.0017 0.03545,0.0051 0.05409,0.0051 h 4.8646385 z m -3.5057295,-3.02792 0.962636,-1.272365 h 3.9369925 l -0.412794,1.272365 z m 9.6890455,5.843273 H 14.545739 V 26.61013 h 3.152542 z m 0.503818,-2.815213 h -5.628084 l 0.654919,-2.020328 h 5.786199 l 0.654918,2.020328 z m 1.133662,-4.300285 h 3.936993 l 0.962637,1.272366 h -4.487405 z m 1.393901,4.300285 -0.654919,-2.020328 h 4.864637 c 0.01847,0 0.036,-0.0034 0.05409,-0.0051 l 1.532041,2.025243 h -5.795558 z"
       id="path1895"
       style="stroke-width:0.0467797" />
  </g>
</svg>
