<?xml version="1.0" encoding="UTF-8"?>
<!DOCTYPE svg PUBLIC "-//W3C//DTD SVG 1.1//EN" "http://www.w3.org/Graphics/SVG/1.1/DTD/svg11.dtd">
<!-- Creator: CorelDRAW X5 -->
<svg xmlns="http://www.w3.org/2000/svg" xml:space="preserve" width="3.61261cm" height="0.79711cm" style="shape-rendering:geometricPrecision; text-rendering:geometricPrecision; image-rendering:optimizeQuality; fill-rule:evenodd; clip-rule:evenodd"
viewBox="0 0 807 178"
 xmlns:xlink="http://www.w3.org/1999/xlink">
 <defs>
  <style type="text/css">
   <![CDATA[
    .fil2 {fill:#00AFEF}
    .fil1 {fill:#ED2F5E}
    .fil0 {fill:#606062;fill-rule:nonzero}
   ]]>
  </style>
 </defs>
 <g id="Camada_x0020_1">
  <metadata id="CorelCorpID_0Corel-Layer"/>
  <path class="fil0" d="M73 66c5,8 7,13 6,16 0,1 0,1 0,2 0,3 3,5 10,6 4,1 9,0 13,-3 3,-2 5,-6 5,-11 1,-7 -1,-14 -4,-20 -5,-9 -14,-15 -27,-18 -7,-2 -14,-3 -21,-3 -12,0 -22,3 -30,8 -10,6 -16,14 -20,26 -3,12 -5,23 -5,34 0,18 4,33 12,45 9,14 22,22 38,25 2,0 5,0 8,0 13,0 26,-2 38,-7 6,-2 9,-5 9,-10 0,-6 -1,-12 -4,-16 -1,-2 -3,-2 -5,-2 -2,0 -4,0 -6,1 -8,3 -16,4 -24,4 -18,0 -30,-7 -35,-22 -3,-9 -4,-17 -4,-24 0,-6 1,-12 3,-17 5,-13 14,-20 26,-20 6,0 12,1 17,4zm114 84c0,-3 -3,-5 -7,-5 -10,-1 -23,1 -39,6 -3,-13 -5,-28 -7,-45 9,-1 18,-2 27,-2 5,0 8,-2 9,-6 1,-3 1,-7 0,-10 -1,-2 -3,-4 -6,-4 -7,0 -18,1 -31,5 -1,-10 -1,-19 -1,-27 10,-2 23,-5 39,-8 4,-1 7,-3 8,-6 1,-4 1,-7 0,-10 -1,-2 -3,-3 -7,-3 -7,0 -16,1 -27,3 -11,2 -20,3 -26,5 -4,1 -6,2 -7,3 -1,1 -2,3 -2,6 0,6 0,13 0,20 0,37 2,68 7,93 0,3 1,5 2,6 1,1 2,2 4,2 1,0 2,0 3,0 17,-2 34,-4 51,-4 4,0 7,-2 8,-4 2,-4 3,-9 2,-14zm91 -114c-2,-3 -6,-5 -12,-5 -2,0 -5,0 -9,0 -25,0 -45,2 -60,5 -5,1 -7,3 -8,5 0,3 0,6 2,8 2,2 5,3 10,3 6,0 14,-1 23,-1 1,14 2,32 2,54 0,21 0,39 -1,53 0,5 0,8 1,9 1,2 4,3 9,3 8,0 14,-1 17,-4 3,-3 5,-8 5,-15 0,-11 -2,-27 -5,-48 -3,-22 -6,-39 -10,-52 9,0 18,0 27,1 4,0 6,0 7,-1 1,-1 2,-2 3,-4 1,-4 0,-7 -2,-10zm111 119c-2,-18 -3,-38 -3,-61 0,-16 1,-31 2,-44 0,-3 0,-5 -1,-6 -1,-1 -3,-2 -6,-2 -6,0 -11,1 -15,4 -3,2 -5,6 -6,11 0,2 0,5 0,9 0,20 2,43 7,71 -9,12 -20,18 -34,18 -14,0 -22,-8 -25,-23 -1,-6 -2,-12 -2,-20 0,-15 3,-33 10,-56 1,-4 2,-6 2,-8 0,-2 -1,-4 -3,-6 -4,-3 -9,-5 -14,-5 -6,0 -11,2 -13,8 -5,14 -8,32 -8,54 0,10 1,18 2,27 2,15 8,26 16,35 9,9 20,13 34,13 15,0 28,-6 39,-19 1,5 2,7 2,8 1,3 3,5 5,5 1,0 2,0 3,-1 3,-1 6,-2 8,-5 2,-2 3,-5 2,-8zm102 -11c-4,-4 -13,-10 -25,-17 -13,-7 -23,-12 -31,-15 8,-2 16,-7 24,-12 8,-6 14,-12 18,-19 4,-6 5,-12 5,-17 0,-8 -3,-14 -10,-18 -7,-5 -17,-7 -31,-7 -16,0 -30,3 -42,8 -5,2 -7,5 -7,8 0,1 0,3 1,5 7,32 9,69 9,112 0,3 1,5 2,6 1,1 3,1 7,1 5,0 9,-2 13,-4 4,-2 6,-7 6,-13 0,-9 -2,-21 -4,-37 16,10 31,24 46,40 3,3 5,4 8,4 2,0 4,-1 5,-2 3,-2 5,-4 7,-7 2,-3 3,-6 3,-9 0,-2 -1,-4 -3,-6zm-79 -78c11,-5 22,-8 34,-8 8,0 13,2 16,5 1,1 1,3 1,4 0,6 -5,12 -14,18 -9,6 -19,10 -31,12 -2,-12 -5,-22 -7,-31zm172 47c-2,-9 -6,-16 -13,-22 -6,-5 -14,-8 -24,-9 5,-2 9,-6 13,-11 4,-5 6,-10 6,-15 0,-4 -2,-8 -5,-12 -5,-7 -15,-10 -29,-10 -11,0 -21,2 -31,5 -4,2 -7,3 -8,4 -1,1 -2,4 -2,8 1,35 5,73 13,114 1,4 4,6 11,6 9,0 19,-3 30,-7 13,-5 22,-12 29,-20 9,-10 12,-21 10,-33zm-72 -60c4,-2 9,-3 14,-3 7,0 12,2 14,6 1,1 1,2 1,3 0,4 -3,8 -9,12 -6,4 -12,6 -18,7 -1,-10 -2,-18 -3,-26zm17 99c-4,-14 -8,-32 -12,-54 5,-1 10,-2 14,-2 11,0 19,3 24,10 2,4 4,8 4,12 0,7 -3,14 -9,20 -6,7 -13,11 -21,14z"/>
  <path class="fil1" d="M649 135c11,-3 23,-5 33,-4 7,1 12,5 13,12 1,7 0,14 -3,20 -3,6 -8,9 -14,9 -16,1 -33,3 -49,5 -1,0 -3,0 -4,0 -4,0 -8,-2 -10,-5 -2,-3 -3,-7 -3,-10 -5,-36 -7,-73 -7,-110 0,-8 0,-15 0,-23 0,-4 1,-8 4,-12 2,-2 6,-4 9,-5 8,-3 18,-5 26,-6 9,-2 19,-3 28,-3 6,0 11,3 13,8 2,5 1,11 0,16 -2,7 -6,11 -13,12 -11,2 -22,4 -33,7 0,5 0,11 0,16 8,-2 17,-4 24,-3 6,0 11,4 13,10 1,5 1,10 0,16 -2,8 -8,12 -16,12 -6,0 -13,1 -19,1 1,12 3,24 5,36z"/>
  <path class="fil2" d="M754 43c-3,-3 -7,-6 -12,-6 -3,0 -5,2 -7,3 -1,1 -2,2 -2,3 0,2 3,4 5,5 12,6 24,11 36,16 8,3 15,9 21,16 6,9 10,18 11,29 1,15 -1,29 -10,42 -9,13 -21,21 -37,24 -22,4 -40,-2 -53,-20 -3,-4 -5,-8 -6,-13 0,-5 1,-9 3,-13 4,-7 9,-12 16,-15 2,-1 4,-2 7,-2 7,-1 11,4 14,9 2,3 3,6 5,9 2,2 4,4 6,5 1,1 3,1 4,1 3,0 5,-4 6,-6 2,-4 3,-9 2,-13 -1,-10 -7,-17 -15,-22 -6,-3 -12,-6 -18,-9 -6,-3 -12,-5 -18,-8 -11,-6 -20,-15 -21,-28 -1,-7 0,-13 3,-19 3,-9 9,-15 17,-21 9,-6 18,-9 29,-10 13,-1 27,1 37,10 3,3 5,6 6,11 0,3 0,5 -1,8 -2,6 -5,11 -9,15 -2,2 -5,4 -8,4 -5,0 -8,-2 -11,-5z"/>
 </g>
</svg>
